<svg style="position: absolute; width: 0; height: 0;" width="0" height="0" version="1.1" xmlns="http://www.w3.org/2000/svg" xmlns:xlink="http://www.w3.org/1999/xlink"><defs><symbol id="x" viewBox="0 -212 1024 1024"><path d="M281 315 l438 0 l0 -97 l133 0 q30 0 49.5 9 q19.5 9 31.5 22.5 q12 13.5 17 29.5 q5 16 5 29 l1 89 l-912 0 l0 -76 q0 -26 9 -45.5 q9 -19.5 23 -32 q14 -12.5 32.5 -18.5 q18.5 -6 36.5 -6 l83 0 q26 0 53 -1 l0 97 ZM44 451 l0 167 q0 14 4 30 q4 16 13.5 29.5 q9.5 13.5 25.5 23 q16 9.5 41 10 q25 0.5 45 0.5 l63 0 l44 -128 l439 0 l45 128 l62 0 q15 1 29 0.5 q14 -0.5 31.5 -5 q17.5 -4.5 33 -16 q15.5 -11.5 26 -30 q10.5 -18.5 10.5 -47.5 l-1 -110 l0 -52 l-911 0 ZM163 514 q13 0 22 8.5 q9 8.5 9 21.5 q0 13 -9 21.5 q-9 8.5 -21.5 8.5 q-12.5 0 -21.5 -8.5 q-9 -8.5 -9 -21.5 q0 -13 9 -21.5 q9 -8.5 21 -8.5 ZM684 638 q6 20 11 38 q5 18 9.5 35.5 q4.5 17.5 9.5 30.5 q9 26 -2 38 q-11 12 -34 12 l-365 0 q-14 0 -21.5 -4 q-7.5 -4 -9.5 -10.5 q-2 -6.5 -1 -14.5 q1 -8 3 -15 l8 -25 q5 -18 10 -37 q6 -22 14 -48 l368 0 ZM663 263 l0 -227 q0 -38 -20.5 -52.5 q-20.5 -14.5 -51.5 -14.5 l-188 0 q-21 0 -34 6 q-13 6 -20.5 15.5 q-7.5 9.5 -10 21.5 q-2.5 12 -2.5 23 l0 228 l327 0 Z"></path></symbol><symbol id="hzl-" viewBox="0 -212 1024 1024"><path d="M927 710.1 q-1 17 -14 29 q-13 12 -33 12 l-733 0 q-22 0 -35.5 -11.5 q-13.5 -11.5 -13.5 -29.5 l-1 -652 q1 -17 15.5 -29 q14.5 -12 34.5 -12 l251 0 q16 -1 22.5 8.5 q6.5 9.5 11.5 26.5 l11 36 l218 0 q19 1 31 12 q12 11 13 29 l0 95 l176 0 q18 2 30.5 13 q12.5 11 15.5 28 l0 445 ZM530 509.1 l114 0 l0 -43 l-114 0 l0 -108 l-43 0 l0 108 l-112 0 l0 43 l112 0 l0 108 l43 0 l0 -108 ZM652 224.1 l-1 -85 l-196 -2 l21 86 l176 1 Z"></path></symbol><symbol id="grzxfill-" viewBox="0 -212 1024 1024"><path d="M922 667 q6 12 6 30.5 q0 18.5 -12 39.5 q-20 27 -46 34 q-26 7 -28 6 l-114 1 q-106 1 -217 1 l-10 0 q-134 0 -235 -2 l-107 -3 q-2 2 -20 -5 q-18 -7 -35 -37 q-14 -31 -3 -63 q25 -65 104 -122 q79 -57 200 -81 q-70 -30 -112.5 -100 q-42.5 -70 -42.5 -171 q1 -49 19.5 -99 q18.5 -50 52.5 -81 q11 -8 64 -16.5 q53 -8.5 111 -9.5 q61 1 114.5 10 q53.5 9 62.5 16 q30 32 49.5 83 q19.5 51 21.5 98 q1 98 -39.5 166.5 q-40.5 68.5 -107.5 99.5 q121 19 204 75 q83 56 120 130 ZM468 123 q1 7 9 8 l17 0 l0 16 q1 7 9 8 l18 0 q8 -1 9 -8 l0 -16 l17 0 q8 -1 9 -8 l0 -16 q-1 -8 -9 -8 l-17 0 l0 -16 q-1 -8 -9 -8 l-18 0 q-8 0 -9 8 l0 16 l-17 0 q-8 0 -9 8 l0 16 ZM497 441 q35 0 67 -12.5 q32 -12.5 58 -36.5 q52 -49 66 -127 q-21 -7 -70.5 -15 q-49.5 -8 -120.5 -8.5 q-71 -0.5 -118.5 5.5 q-47.5 6 -72.5 13 q14 82 69 134 q53 47 122 47 l0 0 Z"></path></symbol><symbol id="hzlfill-" viewBox="0 -212 1024 1024"><path d="M530 465.1 l114 0 l0 44 l-114 0 l0 108 l-43 0 l0 -108 l-112 0 l0 -44 l112 0 l0 -108 l43 0 l0 108 ZM882 223.1 q18 2 31 13 q13 11 15 28 l0 446 q0 17 -13.5 29 q-13.5 12 -33.5 12 l-735 1 q-22 -1 -35.5 -12 q-13.5 -11 -14.5 -30 l0 -654 q1 -17 15 -29 q14 -12 34 -12 l253 0 q16 -1 22.5 8.5 q6.5 9.5 11.5 26.5 l11 36 l218 0 q20 1 32 12 q12 11 12 29 l0 95 l177 1 ZM454 136.1 l22 86 l176 0 l0 -85 l-198 -1 ZM881 705.1 l2 -431 l-399 0 q-11 0 -26.5 -8 q-15.5 -8 -24.5 -29 l-45 -181 l-250 0 l0 649 l743 0 Z"></path></symbol><symbol id="grzx-" viewBox="0 -212 1024 1024"><path d="M919 665 q6 12 6.5 30.5 q0.5 18.5 -12.5 39.5 q-19 27 -45 33.5 q-26 6.5 -28 5.5 l-113 1 q-105 1 -216 2 l-10 0 q-133 -1 -234 -3 l-106 -2 q-1 1 -19 -5.5 q-18 -6.5 -35 -36.5 q-15 -31 -4 -63 q25 -65 103.5 -121.5 q78.5 -56.5 198.5 -80.5 q-69 -30 -111.5 -99.5 q-42.5 -69.5 -42.5 -168.5 q1 -49 19.5 -98.5 q18.5 -49.5 53.5 -81.5 q10 -7 63 -16 q53 -9 110 -10 q60 1 113.5 10.5 q53.5 9.5 62.5 15.5 q29 32 49 82.5 q20 50.5 21 97.5 q2 98 -38.5 166 q-40.5 68 -107.5 99 q121 18 203 73.5 q82 55.5 119 129.5 ZM305 212 q27 -7 75.5 -12.5 q48.5 -5.5 116 -5.5 q67.5 0 117.5 7.5 q50 7.5 76 15.5 q1 -11 1 -23 q-2 -36 -18 -75 q-16 -39 -37 -65 q-17 -5 -56 -11 q-39 -6 -82.5 -6 q-43.5 0 -83.5 6 q-40 6 -55 11 q-22 22 -37 60.5 q-15 38.5 -17 79.5 l0 18 ZM376 394 q52 47 121 46 l0 0 q35 0 67 -12 q32 -12 57 -36 q52 -49 66 -127 q-21 -6 -70 -14.5 q-49 -8.5 -120 -8.5 q-71 0 -118 6 q-47 6 -71 12 q13 83 68 134 ZM865 714 q7 -13 6.5 -25 q-0.5 -12 -2.5 -16 q-31 -64 -120 -117.5 q-89 -53.5 -237 -57.5 q-142 3 -236.5 55.5 q-94.5 52.5 -120.5 118.5 q-3 6 -2 18 q1 12 5 23 q2 4 7.5 10.5 q5.5 6.5 17.5 7.5 l328 0 q97 0 193.5 1 q96.5 1 121.5 1 q9 -1 20 -4.5 q11 -3.5 19 -14.5 Z"></path></symbol><symbol id="zxfill-" viewBox="0 -212 1024 1024"><path d="M630 622 q34 -11 68 -39 q34 -28 63 -60 q50 -56 66.5 -126.5 q16.5 -70.5 -0.5 -144.5 l-24 -65 q-7 -17 3 -30 q10 -13 28 -10 q4 1 6 3 q56 43 87 101 q33 61 33 128 q0 57 -23.5 109.5 q-23.5 52.5 -67.5 95.5 q-1 1 -3.5 16 q-2.5 15 -2.5 54 q1 24 3 41 l6 65 l-55 -35 q-15 -10 -37 -22 q-34 -19 -48.5 -24.5 q-14.5 -5.5 -16.5 -5.5 q-61 18 -124 18 q-31 0 -62 -5 l-2 0 q-11 -4 -11.5 -18.5 q-0.5 -14.5 10.5 -20.5 l104 -25 ZM960 379 l0 0 ZM772 196 q30 59 30 123 q0 64 -30 123 q-28 56 -80 99.5 q-52 43.5 -118.5 66.5 q-66.5 23 -140.5 23 q-63 0 -124 -18 q-2 -1 -16.5 5 q-14.5 6 -48.5 25 q-22 12 -37 21 l-55 36 l6 -65 q2 -17 3 -42 q0 -39 -2.5 -53.5 q-2.5 -14.5 -3.5 -15.5 q-44 -43 -67.5 -95.5 q-23.5 -52.5 -23.5 -109.5 q0 -65 29 -121.5 q29 -56.5 81 -100 q52 -43.5 118.5 -66.5 q66.5 -23 140.5 -23 q74 0 140.5 23 q66.5 23 118.5 66.5 q52 43.5 80 99.5 l0 -1 ZM256 357 q18 -1 30 -13 q12 -12 12 -30 q0 -13 -7 -23.5 q-7 -10.5 -19 -15.5 q-12 -5 -24.5 -2.5 q-12.5 2.5 -21.5 12 q-9 9.5 -11.5 21.5 q-2.5 12 2.5 24.5 q5 12.5 15.5 19 q10.5 6.5 23.5 7.5 ZM434 357 q17 -1 29.5 -13.5 q12.5 -12.5 12.5 -29.5 q0 -13 -7 -23.5 q-7 -10.5 -19 -15.5 q-12 -5 -24.5 -2.5 q-12.5 2.5 -21.5 12 q-9 9.5 -11.5 21.5 q-2.5 12 2.5 24.5 q5 12.5 15.5 19 q10.5 6.5 23.5 7.5 ZM603 357 q18 -1 30 -13 q12 -12 12 -30 q0 -13 -7 -23.5 q-7 -10.5 -19.5 -15.5 q-12.5 -5 -24.5 -2.5 q-12 2.5 -21.5 12 q-9.5 9.5 -12 21.5 q-2.5 12 3 24.5 q5.5 12.5 16 19.5 q10.5 7 23.5 7 Z"></path></symbol><symbol id="zx-" viewBox="0 -212 1024 1024"><path d="M772 443 q-28 56 -80 99 q-52 43 -118.5 66 q-66.5 23 -140.5 23 q-63 1 -124 -17 q-2 -1 -16.5 4.5 q-14.5 5.5 -48.5 24.5 q-22 13 -37 22 l-55 36 l6 -65 q2 -18 3 -42 q0 -39 -2.5 -53.5 q-2.5 -14.5 -3.5 -15.5 q-44 -43 -67.5 -95.5 q-23.5 -52.5 -23.5 -109.5 q0 -65 29 -122 q29 -57 81 -100 q52 -43 118.5 -66.5 q66.5 -23.5 140.5 -23.5 q74 0 140.5 23.5 q66.5 23.5 118.5 66.5 q52 43 80 99 q30 59 30 123 q0 64 -30 123 ZM433 587 q138 -3 229.5 -78.5 q91.5 -75.5 94.5 -188.5 q-3 -113 -94.5 -188.5 q-91.5 -75.5 -229.5 -78.5 q-138 3 -229.5 78.5 q-91.5 75.5 -95.5 188.5 q1 48 21 92.5 q20 44.5 57 81.5 q8 6 14 26.5 q6 20.5 5 70.5 l-1 24 l18 -10 q41 -23 60.5 -30 q19.5 -7 27.5 -6 q5 0 10 2 q55 16 113 16 ZM433 587 l0 0 ZM960 380 q0 57 -23.5 109.5 q-23.5 52.5 -67.5 95.5 q-1 1 -3.5 15.5 q-2.5 14.5 -2.5 54.5 q1 24 3 41 l6 65 l-55 -36 q-15 -9 -37 -22 q-34 -19 -48.5 -24.5 q-14.5 -5.5 -16.5 -4.5 q-61 18 -124 18 q-31 0 -62 -5 q-10 -1 -15 -8.5 q-5 -7.5 -4 -16.5 q1 -9 8.5 -14.5 q7.5 -5.5 16.5 -4.5 q28 4 56 4 q58 0 113 -16 q15 -6 46 7 q20 9 48 24 l22 13 l-1 -24 q-1 -50 5 -70.5 q6 -20.5 14 -26.5 q38 -37 58 -81.5 q20 -44.5 20 -92.5 q0 -56 -27 -106.5 q-27 -50.5 -76 -88.5 q-7 -6 -8 -14.5 q-1 -8.5 4.5 -16 q5.5 -7.5 14.5 -8.5 q9 -1 17 4 q55 44 87 102 q32 61 32 128 ZM960 380 l0 0 ZM256 272 q18 1 30 13 q12 12 12 30 q0 13 -7 23.5 q-7 10.5 -19 15.5 q-12 5 -24 2.5 q-12 -2.5 -21.5 -11.5 q-9.5 -9 -12 -21.5 q-2.5 -12.5 2.5 -24.5 q5 -12 15.5 -19 q10.5 -7 23.5 -8 ZM256 272 l0 0 ZM434 272 q18 1 30 13 q12 12 12 30 q0 13 -7 23.5 q-7 10.5 -19 15.5 q-12 5 -24.5 2.5 q-12.5 -2.5 -21.5 -11.5 q-9 -9 -11.5 -21.5 q-2.5 -12.5 2.5 -24.5 q5 -12 15.5 -19 q10.5 -7 23.5 -8 ZM434 272 l0 0 ZM602 272 q19 1 31 13 q12 12 12 30 q0 13 -7 23.5 q-7 10.5 -19 15.5 q-12 5 -24.5 2.5 q-12.5 -2.5 -21.5 -11.5 q-9 -9 -11.5 -21.5 q-2.5 -12.5 2 -24.5 q4.5 -12 15 -19 q10.5 -7 23.5 -8 ZM602 272 l0 0 Z"></path></symbol><symbol id="zjtfill-" viewBox="0 -212 1024 1024"><path d="M957 594 q2 6 2.5 14 q0.5 8 -5.5 19.5 q-6 11.5 -22.5 21.5 q-16.5 10 -44.5 17 q-12 3 -30 5 l-21 4 l11 -2 q8 -1 -11 2 q-20 0 -26.5 -38 q-6.5 -38 -23.5 -84 q-33 -59 -52 -71 q-19 -12 -19 -36 q2 -25 24 -52 q22 -27 32 -100 q4 -63 -11.5 -108 q-15.5 -45 -17.5 -58 q0 -11 7 -19 q7 -8 17 -9 l0 0 q69 6 114.5 58.5 q45.5 52.5 47.5 128.5 q-1 49 -21.5 89.5 q-20.5 40.5 -56.5 66.5 q20 11 37 26 q26 24 44 56 q18 32 26 69 ZM67 595 q-2 7 -2.5 15 q-0.5 8 5.5 19.5 q6 11.5 22.5 21.5 q16.5 10 44.5 17 q12 2 30 5 l21 3 l-11 -2 q-8 -1 11 2 q20 1 26.5 -37.5 q6.5 -38.5 23.5 -84.5 q33 -58 52 -70.5 q19 -12.5 19 -36.5 q-2 -25 -24 -51.5 q-22 -26.5 -32 -99.5 q-4 -64 11.5 -109 q15.5 -45 17.5 -57 q0 -12 -7 -19.5 q-7 -7.5 -17 -8.5 l0 0 q-69 6 -114.5 58 q-45.5 52 -47.5 128 q1 50 21.5 90.5 q20.5 40.5 56.5 66.5 q-20 11 -37 26 q-26 24 -44 56 q-18 32 -26 68 ZM687 487 q34 30 57.5 68.5 q23.5 38.5 33.5 83.5 q3 7 3 16 q0 9 -7 21.5 q-7 12.5 -27.5 24 q-20.5 11.5 -56.5 19.5 q-36 8 -80 12.5 q-44 4.5 -93.5 4.5 q-49.5 0 -93.5 -4.5 q-44 -4.5 -80 -12.5 q-36 -8 -56.5 -19.5 q-20.5 -11.5 -27.5 -24 q-7 -12.5 -7 -21.5 q0 -9 3 -16 q10 -45 33.5 -83.5 q23.5 -38.5 57.5 -68.5 q26 -22 57 -36 q-23 -14 -42 -33 q-67 -69 -67.5 -159.5 q-0.5 -90.5 65.5 -161.5 q32 -32 72.5 -49 q40.5 -17 85 -17 q44.5 0 85 17 q40.5 17 72.5 49 q18 19 32 41 q48 84 26.5 172 q-21.5 88 -102.5 141 q31 14 57 36 Z"></path></symbol><symbol id="zjt-" viewBox="0 -212 1024 1024"><path d="M958 594 q2 6 2.5 14.5 q0.5 8.5 -5.5 19.5 q-6 11 -22.5 21 q-16.5 10 -44.5 17 q-10 3 -23 5 q-13 2 -26 3 l-2 1 q-11 -1 -18.5 -9 q-7.5 -8 -7.5 -19.5 q0 -11.5 7 -19.5 q7 -8 18 -8 q14 -2 27 -5 q38 -8 48 -13 q-14 -66 -51.5 -96.5 q-37.5 -30.5 -90.5 -30.5 l-25 1 l0 -3 l-1 3 q-12 -1 -19.5 -9 q-7.5 -8 -7.5 -20 q0 -12 7.5 -19 q7.5 -7 19.5 -8 l15 1 l11 -2 q50 -2 81.5 -39 q31.5 -37 32.5 -92 q-1 -53 -30.5 -89 q-29.5 -36 -76.5 -42 l-8 -2 q-11 -1 -18 -7.5 q-7 -6.5 -7 -18 q0 -11.5 7 -19.5 q7 -8 18 -9 l0 0 q69 6 114 58.5 q45 52.5 47 128.5 q0 49 -21 89.5 q-21 40.5 -56 66.5 q19 11 36 26 q27 24 44.5 56 q17.5 32 25.5 69 ZM66 584 q-2 6 -2.5 14 q-0.5 8 5.5 19 q6 11 23 21 q17 10 45 17 q10 2 23.5 4.5 q13.5 2.5 26.5 3.5 l3 0 q11 0 16.5 -8 q5.5 -8 5.5 -19.5 q0 -11.5 -9.5 -19 q-9.5 -7.5 -20.5 -8.5 q-15 -2 -27 -4 q-36 -8 -45 -13 q17 -64 57.5 -94.5 q40.5 -30.5 95.5 -30.5 l13 0 l11 -2 q6 -4 11 -10.5 q5 -6.5 5 -18 q0 -11.5 -7 -18 q-7 -6.5 -19 -6.5 l-14 0 q-53 -1 -87.5 -37 q-34.5 -36 -35.5 -91 q1 -51 32.5 -86.5 q31.5 -35.5 79.5 -41.5 l10 -2 q11 -1 16.5 -8.5 q5.5 -7.5 5.5 -19 q0 -11.5 -6.5 -18 q-6.5 -6.5 -17.5 -7.5 l0 0 q-70 6 -116.5 57 q-46.5 51 -47.5 126 q0 49 21 88.5 q21 39.5 57 64.5 q-20 11 -37 26 q-27 23 -45 54.5 q-18 31.5 -26 67.5 ZM688 487 q35 30 58 68.5 q23 38.5 33 83.5 q3 7 3 16 q0 9 -6.5 21 q-6.5 12 -27.5 24 q-21 12 -56.5 20 q-35.5 8 -80 12.5 q-44.5 4.5 -93.5 4.5 q-49 0 -93.5 -4.5 q-44.5 -4.5 -80.5 -12.5 q-36 -8 -56.5 -20 q-20.5 -12 -27.5 -24.5 q-7 -12.5 -6.5 -21 q0.5 -8.5 3.5 -15.5 q9 -45 32.5 -83.5 q23.5 -38.5 58.5 -68.5 q26 -22 56 -36 q-23 -14 -42 -33 q-66 -69 -67 -159.5 q-1 -90.5 65 -161.5 q32 -32 72.5 -49 q40.5 -17 85.5 -17 q45 0 85 17 q40 17 72 49 q18 19 32 41 q48 84 27 172 q-21 88 -103 141 q31 14 57 36 ZM343 257 q2 75 51.5 125 q49.5 50 123.5 52 q74 -2 123.5 -52 q49.5 -50 51.5 -125 q-2 -76 -51.5 -126 q-49.5 -50 -123.5 -52 q-74 2 -123.5 52 q-49.5 50 -51.5 126 ZM674 673 q28 -5 43.5 -10.5 q15.5 -5.5 21.5 -9.5 q-19 -80 -79.5 -129 q-60.5 -49 -141.5 -51 q-81 2 -141.5 51 q-60.5 49 -80.5 129 q6 4 22 9.5 q16 5.5 44 10.5 q33 6 73 9.5 q40 3.5 83 3.5 q43 0 83 -3.5 q40 -3.5 73 -9.5 Z"></path></symbol><symbol id="ic_order-" viewBox="0 -212 1024 1024"><path d="M606 -62 q18 1 30 14 q12 13 12 33.5 q0 20.5 -12 34 q-12 13.5 -29 14.5 l-197 0 q-18 -1 -30.5 -14.5 q-12.5 -13.5 -12.5 -34 q0 -20.5 12.5 -33.5 q12.5 -13 30.5 -14 l196 0 ZM818 -30 q55 1 81.5 30.5 q26.5 29.5 26.5 79.5 l0 641 q0 58 -28 83.5 q-28 25.5 -86 25.5 l-609 0 q-57 0 -81.5 -28 q-24.5 -28 -23.5 -81 l0 -641 q-1 -50 19.5 -79.5 q20.5 -29.5 79.5 -30.5 l98 0 q-1 8 -1 16 q0 31 18.5 54.5 q18.5 23.5 46.5 24.5 l299 0 q27 -1 45 -24.5 q18 -23.5 19 -54.5 q0 -8 -1 -16 l97 0 ZM718 604 q12 -1 19 -12 q7 -11 6.5 -23.5 q-0.5 -12.5 -9 -20.5 q-8.5 -8 -20.5 -8 l-422 0 q-12 0 -20 8.5 q-8 8.5 -8 20.5 q0 12 9 23 q9 11 21 12 l424 0 ZM720 434 q12 -1 21.5 -10.5 q9.5 -9.5 9 -22.5 q-0.5 -13 -8.5 -22 q-8 -9 -20 -9 l-423 0 q-12 0 -20 9.5 q-8 9.5 -8 22 q0 12.5 6.5 22 q6.5 9.5 18.5 10.5 l424 0 ZM720 259 q12 0 21.5 -10 q9.5 -10 9 -22.5 q-0.5 -12.5 -8.5 -21.5 q-8 -9 -20 -10 l-423 0 q-12 1 -20 10 q-8 9 -8 21.5 q0 12.5 6.5 22.5 q6.5 10 18.5 10 l424 0 ZM720 259 l0 0 Z"></path></symbol><symbol id="ic_depart-" viewBox="0 -212 1024 1024"><path d="M497 491 q84 29 135.5 98 q51.5 69 53.5 161 l0 24 l-589 0 l0 -23 q2 -93 53.5 -162 q51.5 -69 134.5 -98 q-49 -29 -76 -76.5 q-27 -47.5 -28 -104.5 q2 -89 61.5 -148.5 q59.5 -59.5 148.5 -61.5 q90 2 149 61.5 q59 59.5 61 148.5 q0 57 -27.5 104.5 q-27.5 47.5 -76.5 76.5 ZM497 491 l0 0 ZM739 386 q83 28 134.5 97 q51.5 69 53.5 162 l0 23 l-200 0 q-3 -10 -6 -20 q-17 -49 -46.5 -89.5 q-29.5 -40.5 -71.5 -70.5 l-12 -9 q15 -17 27 -37 q28 -49 34 -104.5 q6 -55.5 -12 -110 q-18 -54.5 -56 -95.5 q-38 -41 -91 -64 l-16 -6 q31 -33 71 -50.5 q40 -17.5 85 -17.5 q89 2 148.5 61.5 q59.5 59.5 61.5 148.5 q-1 57 -28 105 q-27 48 -76 77 ZM739 386 l0 0 Z"></path></symbol><symbol id="ic_message-" viewBox="0 -212 1024 1024"><path d="M850 44 q32 1 54.5 23.5 q22.5 22.5 22.5 53.5 l0 528 q-1 33 -22.5 55 q-21.5 22 -54.5 22 l-677 0 q-33 0 -54.5 -22 q-21.5 -22 -22.5 -55 l0 -528 q1 -32 22.5 -54 q21.5 -22 54.5 -23 l677 0 ZM862 224 q0 -5 -4.5 -8 q-4.5 -3 -9.5 -1 l-333 141 q-3 1 -7 0 l-333 -141 q-5 -2 -9 1 q-4 3 -5 8 l0 33 q1 6 6 8 l340 175 q5 2 9 0 l341 -175 q5 -2 5 -8 l0 -33 ZM862 257 l0 0 Z"></path></symbol><symbol id="ic_addhz-" viewBox="0 -212 1024 1024"><path d="M305 162.15 q-4 93 55.5 156 q59.5 63 151.5 66 q88 -3 146 -61.5 q58 -58.5 61 -145.5 q-3 -92 -65.5 -151 q-62.5 -59 -154.5 -56 q-79 6 -133 59.5 q-54 53.5 -61 132.5 ZM580 659.15 q0 40 13.5 75 q13.5 35 38.5 63 l-500 0 q-15 -1 -24.5 -10.5 q-9.5 -9.5 -9.5 -24.5 l0 -103 q12 -104 154.5 -155.5 q142.5 -51.5 258.5 -51.5 q36 0 82 6 q46 6 95 19 q-50 28 -79 76 q-29 48 -29 106 ZM926 693.15 l-104 0 l0 104 l-69 0 l0 -104 l-103 0 l0 -69 l103 0 l0 -103 l69 0 l0 103 l104 0 l0 69 ZM926 624.15 l0 0 Z"></path></symbol><symbol id="ic_newhz-" viewBox="0 -212 1024 1024"><path d="M419 -29 q-18 0 -37 3 q-19 3 -38.5 11.5 q-19.5 8.5 -36.5 21.5 q-19 16 -33 38 q-17 25 -24.5 53.5 q-7.5 28.5 -10.5 57.5 q-4 32 -4 63 q-6 8 -9.5 17.5 q-3.5 9.5 -4.5 19.5 q-1 13 2.5 25 q3.5 12 10.5 22 q4 6 9.5 10.5 q5.5 4.5 11.5 6.5 l7 27 l9 21 q4 9 11 16 q12 11 24 23 q12 12 12 30 q1 13 1 23.5 q0 10.5 -4 21 q-4 10.5 -12 19.5 q-11 12 -25 21 q-22 14 -48.5 21 q-26.5 7 -51.5 16.5 q-25 9.5 -45 25.5 q-20 19 -23 47 q-7 43 -3 87 q0 22 12 41 q10 6 22 8 q18 4 43.5 8 q25.5 4 57.5 8 q32 4 63.5 7 q31.5 3 61.5 4.5 q30 1.5 52.5 1.5 q22.5 0 54 -2 q31.5 -2 63.5 -4 l40 -4 q24 -3 41 -6 l-18 -10 l-8 -7 q-13 -9 -25 -21 q-9 -8 -16.5 -17 q-7.5 -9 -13.5 -19 l-8 -12 q-7 -13 -13 -25 q-4 -10 -7 -20 q-6 -19 -9 -39 q-2 -9 -2.5 -22 q-0.5 -13 0 -26.5 q0.5 -13.5 3.5 -27.5 q1 -10 4 -18 l6 -21 q6 -17 15 -33 l0 -14 q0 -8 1 -15 q2 -16 13 -28 q11 -12 24 -22 q7 -7 11.5 -16.5 q4.5 -9.5 8.5 -20.5 l8 -27 q8 -2 14.5 -9 q6.5 -7 11.5 -16 q5 -13 6 -27 q2 -12 0 -23 q-2 -7 -5 -14 q-3 -7 -9 -11 q0 -34 -4 -67 q-4 -31 -13 -61.5 q-9 -30.5 -29 -57.5 q-11 -13 -24 -23 q-16 -12 -35.5 -21 q-19.5 -9 -41 -14 q-21.5 -5 -44.5 -5 l0 0 ZM419 -29 l0 0 ZM918 576 q-2 -79 -54.5 -131.5 q-52.5 -52.5 -131.5 -54.5 q-80 2 -132.5 54.5 q-52.5 52.5 -54.5 131.5 q2 80 54.5 132.5 q52.5 52.5 132.5 54.5 q79 -2 131.5 -54.5 q52.5 -52.5 54.5 -132.5 ZM703 482 q3 -21 15 -26 q12 -5 13.5 -5 q1.5 0 13.5 5 q12 5 14 26 l0 66 l66 0 q21 3 25.5 15 q4.5 12 4.5 13.5 q0 1.5 -4.5 13 q-4.5 11.5 -25.5 14.5 l-66 0 l0 67 q-2 21 -14 25.5 q-12 4.5 -13.5 4.5 q-1.5 0 -13 -4.5 q-11.5 -4.5 -15.5 -25.5 l0 -67 l-67 0 q-22 -2 -26.5 -14 q-4.5 -12 -4.5 -13.5 q0 -1.5 4.5 -13.5 q4.5 -12 26.5 -15 l67 0 l0 -33 q0 -28 0 -33 ZM703 482 l0 0 Z"></path></symbol><symbol id="ic_woman-" viewBox="0 -212 1024 1024"><path d="M860 629 q-7 -23 -27 -38 q-20 -15 -44 -23.5 q-24 -8.5 -49.5 -15 q-25.5 -6.5 -48.5 -15.5 q-44 -18 -56.5 -42 q-12.5 -24 -10.5 -48 l89 -14 q15 -21 26 -45 q11 -24 19 -50 q10 -30 12 -67 q1 -25 -3 -60 q-4 -35 -15 -70 q-11 -38 -28 -73.5 q-17 -35.5 -43.5 -65 q-26.5 -29.5 -61 -47.5 q-34.5 -18 -78.5 -18 l-19 1 l-19 1 q-35 0 -68 12 q-60 17 -94 51.5 q-34 34.5 -52 79.5 q-18 45 -22.5 93.5 q-4.5 48.5 -4.5 91.5 q0 52 9 84.5 q9 32.5 20 51.5 q12 22 29 33 l77 11 q1 11 0 22 q-1 11 -6.5 20.5 q-5.5 9.5 -14.5 18.5 q-9 9 -26 20 q-23 15 -54 22.5 q-31 7.5 -59.5 17.5 q-28.5 10 -51 27.5 q-22.5 17.5 -27.5 50.5 q-8 57 -3 93 q5 36 13.5 43 q8.5 7 47 15.5 q38.5 8.5 89.5 16.5 q51 8 104.5 13 q53.5 5 92.5 5 q26 0 61 -2.5 q35 -2.5 73 -7 q38 -4.5 76 -10.5 q38 -6 69 -12 q31 -6 51.5 -13 q20.5 -7 25.5 -14 q6 -9 9 -28 q3 -19 3 -40 q0 -21 -2.5 -42 q-2.5 -21 -7.5 -34 ZM860 629 l0 0 Z"></path></symbol><symbol id="ic_locked-" viewBox="0 -212 1024 1024"><path d="M789 296 q21 1 35.5 15 q14.5 14 14.5 35 l0 404 q0 21 -14.5 35.5 q-14.5 14.5 -35.5 14.5 l-554 0 q-21 0 -35.5 -14.5 q-14.5 -14.5 -14.5 -35.5 l0 -404 q0 -21 14.5 -35 q14.5 -14 35.5 -15 l50 0 l0 -101 q2 -97 66 -161 q64 -64 161 -66 q97 2 160.5 66 q63.5 64 65.5 161 l0 101 l51 0 ZM663 195 q-2 -64 -44.5 -107 q-42.5 -43 -106.5 -44 q-64 1 -107 44 q-43 43 -44 107 l0 101 l302 0 l0 -101 ZM663 296 l0 0 Z"></path></symbol><symbol id="ic_choose-" viewBox="0 -212 1024 1024"><path d="M512 800 q177 -4 294.5 -121.5 q117.5 -117.5 121.5 -294.5 q-4 -177 -121.5 -294.5 q-117.5 -117.5 -294.5 -121.5 q-177 4 -294.5 121.5 q-117.5 117.5 -121.5 294.5 q4 177 121.5 294.5 q117.5 117.5 294.5 121.5 ZM789 245 l-364 312 l-156 -208 l0 -52 l156 174 l364 -260 l0 34 Z"></path></symbol><symbol id="ic_man-" viewBox="0 -212 1024 1024"><path d="M864 637 q-8 -23 -28 -38 q-20 -15 -44 -24 q-24 -9 -50 -16 q-26 -7 -50.5 -16.5 q-24.5 -9.5 -39 -22 q-14.5 -12.5 -20.5 -26 q-6 -13.5 -7 -28 q-1 -14.5 2 -27.5 q4 -22 14 -32 l27 -23 q8 -5 13.5 -16.5 q5.5 -11.5 10.5 -22.5 q5 -14 9 -29 q6 -3 10.5 -9 q4.5 -6 8.5 -17.5 q4 -11.5 6 -30.5 q2 -12 1 -24 q0 -10 -1 -16.5 q-1 -6.5 -3 -12.5 q-1 -35 -6 -69.5 q-5 -34.5 -15 -66.5 q-11 -35 -34 -64 q-9 -13 -17 -19.5 q-8 -6.5 -16.5 -9 q-8.5 -2.5 -17.5 -2.5 l-19 0 l-13 -14 q-6 -7 -15 -11.5 q-9 -4.5 -23 -8 q-14 -3.5 -36 -5.5 q-22 0 -44 3.5 q-22 3.5 -44 12.5 q-22 9 -42 24.5 q-20 15.5 -37 40.5 q-20 27 -28.5 58 q-8.5 31 -12.5 62 q-4 34 -4 69 q-4 8 -5.5 17.5 q-1.5 9.5 0 22.5 q1.5 13 5.5 26 q4 13 9 24 q4 9 7 14 l6 6 q4 15 9 27.5 q5 12.5 10 24 q5 11.5 13 16.5 q15 13 27 25 q12 12 14 33 q1 15 1 26.5 q0 11.5 -4.5 22 q-4.5 10.5 -14.5 21.5 q-10 11 -29 22 q-23 16 -54 23.5 q-31 7.5 -61 18.5 q-28 9 -50 27 q-22 18 -27 51 q-9 58 -4 94.5 q5 36.5 14 43.5 q4 5 25 9.5 q21 4.5 51 9 q30 4.5 66 8.5 q36 4 72.5 7 q36.5 3 71 5 q34.5 2 60.5 2 q26 0 61 -1.5 q35 -1.5 72 -5 q37 -3.5 74 -8 q37 -4.5 67 -10 q30 -5.5 50 -12 q20 -6.5 25 -13.5 q7 -9 10.5 -28.5 q3.5 -19.5 3.5 -40.5 q0 -21 -3 -42 q-2 -18 -7 -35 ZM552 605 q-8 16 -13.5 25 q-5.5 9 -11.5 14 q3 10 7 26.5 q4 16.5 8 34.5 l6 31 q3 14 3 19.5 q0 5.5 -4.5 13 q-4.5 7.5 -10.5 13.5 q-6 6 -13 11 q-7 5 -12 5 q-5 0 -11.5 -5 q-6.5 -5 -12 -12 q-5.5 -7 -10 -14 q-4.5 -7 -4.5 -12 q0 -8 2.5 -23 q2.5 -15 6 -32 q3.5 -17 6.5 -33 l6 -25 q-6 -6 -10 -16 l-12 -24 q-3 -4 -0.5 -10 q2.5 -6 6.5 -12 q4 -6 10 -12 l45 0 q7 7 12 12.5 q5 5.5 7.5 12 q2.5 6.5 -0.5 12.5 ZM552 605 l0 0 Z"></path></symbol><symbol id="ic_personx-" viewBox="0 -212 1024 1024"><path d="M514 454 q-110 -3 -183 -76 q-73 -73 -76 -183 q3 -110 76 -183 q73 -73 183 -76 q109 3 182 76 q73 73 76 183 q-3 110 -76 183 q-73 73 -182 76 ZM673 493 q113 39 182 120.5 q69 81.5 73 184.5 q0 8 -1.5 17 q-1.5 9 -1.5 17 l-826 0 q-2 -8 -3 -17 l0 -17 q2 -103 71.5 -184.5 q69.5 -81.5 183.5 -120.5 q33 26 74 41 q41 15 89 16 q45 0 85.5 -14.5 q40.5 -14.5 73.5 -42.5 Z"></path></symbol><symbol id="ic_more-" viewBox="0 -212 1024 1024"><path d="M854 491 q45 -1 75 -31.5 q30 -30.5 31 -75.5 q-1 -45 -31 -75.5 q-30 -30.5 -75 -31.5 q-46 1 -76 31.5 q-30 30.5 -31 75.5 q1 45 31 75.5 q30 30.5 76 31.5 ZM512 491 q45 -1 75.5 -31.5 q30.5 -30.5 31.5 -75.5 q-1 -45 -31.5 -75.5 q-30.5 -30.5 -75.5 -31.5 q-45 1 -75.5 31.5 q-30.5 30.5 -31.5 75.5 q1 45 31.5 75.5 q30.5 30.5 75.5 31.5 ZM170 491 q46 -1 76 -31.5 q30 -30.5 31 -75.5 q-1 -45 -31 -75.5 q-30 -30.5 -76 -31.5 q-45 1 -75 31.5 q-30 30.5 -31 75.5 q1 45 31 75.5 q30 30.5 75 31.5 Z"></path></symbol><symbol id="ic_photo-" viewBox="0 -212 1024 1024"><path d="M79 633 l0 -536 q1 -37 23.5 -61 q22.5 -24 57.5 -25 l702 0 q34 1 57 25 q23 24 24 61 l0 533 l-219 -294 q-4 -7 -21.5 -22 q-17.5 -15 -47.5 -17 q-32 2 -50 20 q-18 18 -21 25 l-144 228 l-3 3 q-2 2 -4.5 2 q-2.5 0 -6.5 -2.5 q-4 -2.5 -7 -5.5 l-88 -94 q-3 -5 -17.5 -15.5 q-14.5 -10.5 -36.5 -11.5 l-1 0 q-21 1 -35.5 12.5 q-14.5 11.5 -18.5 17.5 l-143 157 ZM365 205 q-27 1 -45 19 q-18 18 -18 45 q0 27 18 45 q18 18 45 18 q27 0 45 -18 q18 -18 18 -45 q0 -27 -18 -45 q-18 -18 -45 -19 ZM365 181 l0 0 ZM943 705 q-10 24 -30 38 q-20 14 -45 14 l-713 0 q-26 0 -46.5 -15 q-20.5 -15 -29.5 -40 l177 -191 q3 -4 8.5 -8 q5.5 -4 9.5 -4 q6 0 11.5 3.5 q5.5 3.5 7.5 6.5 l90 95 q3 4 16 13 q13 9 33 10 q22 -1 34.5 -11.5 q12.5 -10.5 13.5 -14.5 l148 -231 q3 -5 11 -12.5 q8 -7.5 19 -8.5 q12 1 20 8 q8 7 9 10 l0 0 l256 338 ZM687 367 l0 0 Z"></path></symbol><symbol id="ic_camrea-" viewBox="0 -212 1024 1024"><path d="M960 643 l-2 2 l0 56 q0 23 -16 38.5 q-16 15.5 -39 16.5 l-784 0 q-23 -1 -38.5 -16.5 q-15.5 -15.5 -16.5 -38.5 l0 -536 q1 -24 16.5 -39.5 q15.5 -15.5 38.5 -15.5 l168 0 l23 -46 q1 -4 16 -26.5 q15 -22.5 38 -25.5 l294 0 q23 3 38 24.5 q15 21.5 17 28.5 l22 45 l168 0 q23 0 39 15.5 q16 15.5 16 39.5 l0 480 q1 -1 1 -2 l1 0 ZM508 599 q81 -2 134.5 -55 q53.5 -53 55.5 -133 q-2 -80 -55.5 -133 q-53.5 -53 -134.5 -55 q-80 2 -133.5 55 q-53.5 53 -55.5 133 q2 80 55.5 133 q53.5 53 133.5 55 ZM798 273 q19 0 31.5 -12.5 q12.5 -12.5 12.5 -31.5 q0 -19 -12.5 -31 q-12.5 -12 -31.5 -12 q-19 0 -31.5 12 q-12.5 12 -12.5 31 q0 19 12.5 31.5 q12.5 12.5 31.5 12.5 Z"></path></symbol><symbol id="ic_voice-" viewBox="0 -212 1024 1024"><path d="M512 800 q177 -4 294.5 -121.5 q117.5 -117.5 121.5 -294.5 q-4 -177 -121.5 -294.5 q-117.5 -117.5 -294.5 -121.5 q-177 4 -294.5 121.5 q-117.5 117.5 -121.5 294.5 q4 177 121.5 294.5 q117.5 117.5 294.5 121.5 ZM512 -18 q170 5 283.5 118.5 q113.5 113.5 118.5 283.5 q-5 170 -118.5 283.5 q-113.5 113.5 -283.5 118.5 q-170 -5 -283.5 -118.5 q-113.5 -113.5 -118.5 -283.5 q5 -170 118.5 -283.5 q113.5 -113.5 283.5 -118.5 ZM579 625 q52 -45 81.5 -108 q29.5 -63 29.5 -137 q0 -70 -27.5 -131 q-27.5 -61 -75.5 -106 l-38 38 q40 38 63.5 89 q23.5 51 23.5 110 q0 63 -25.5 116 q-25.5 53 -69.5 91 l38 38 ZM579 625 l0 0 ZM476 522 q34 -24 53.5 -59.5 q19.5 -35.5 21 -77 q1.5 -41.5 -16 -78 q-17.5 -36.5 -49.5 -61.5 l-39 38 q25 18 38.5 44.5 q13.5 26.5 12 57.5 q-1.5 31 -17.5 56 q-16 25 -43 40 l40 40 ZM372 427 q16 0 27.5 -11.5 q11.5 -11.5 11.5 -27.5 q0 -16 -11 -27 q-11 -11 -27.5 -11 q-16.5 0 -27.5 11 q-11 11 -11 27.5 q0 16.5 11 27 q11 10.5 27 11.5 ZM372 427 l0 0 Z"></path></symbol><symbol id="ic_emjo-" viewBox="0 -212 1024 1024"><path d="M512 800 q177 -4 294.5 -121.5 q117.5 -117.5 121.5 -294.5 q-4 -177 -121.5 -294.5 q-117.5 -117.5 -294.5 -121.5 q-177 4 -294.5 121.5 q-117.5 117.5 -121.5 294.5 q4 177 121.5 294.5 q117.5 117.5 294.5 121.5 ZM512 -17 q170 4 283.5 117.5 q113.5 113.5 117.5 283.5 q-4 170 -117.5 283.5 q-113.5 113.5 -283.5 117.5 q-170 -4 -283.5 -117.5 q-113.5 -113.5 -117.5 -283.5 q4 -170 117.5 -283.5 q113.5 -113.5 283.5 -117.5 ZM310 250 q1 -31 16 -51.5 q15 -20.5 38 -20.5 q23 0 38.5 20.5 q15.5 20.5 15.5 51.5 q0 31 -15.5 51.5 q-15.5 20.5 -38.5 20.5 q-23 0 -38 -20.5 q-15 -20.5 -16 -51.5 ZM608 250 q0 -31 15.5 -51.5 q15.5 -20.5 38.5 -20.5 q23 0 38 20.5 q15 20.5 15 51.5 q0 31 -15 51.5 q-15 20.5 -38 20.5 q-23 0 -38.5 -20.5 q-15.5 -20.5 -15.5 -51.5 ZM240 413 q3 98 79.5 173 q76.5 75 192.5 79 q116 -4 192.5 -79 q76.5 -75 79.5 -173 l-544 0 Z"></path></symbol><symbol id="ic_addtj-" viewBox="0 -212 1024 1024"><path d="M512 10 q-76 0 -145 30 q-135 60 -193.5 185.5 q-58.5 125.5 -17.5 267.5 q46 139 165.5 210 q119.5 71 263.5 45 q143 -32 225.5 -144 q82.5 -112 71.5 -258 q-18 -146 -120.5 -239 q-102.5 -93 -249.5 -97 ZM512 -30 q176 5 292.5 121.5 q116.5 116.5 121.5 292.5 q-5 176 -121.5 292.5 q-116.5 116.5 -292.5 121.5 q-176 -5 -292.5 -121.5 q-116.5 -116.5 -121.5 -292.5 q5 -176 121.5 -292.5 q116.5 -116.5 292.5 -121.5 ZM270 404 l484 0 l0 -40 l-484 0 l0 40 ZM532 626 l0 -484 l-40 0 l0 484 l40 0 Z"></path></symbol><symbol id="ic_liaotianjiemiantianjiatupian-" viewBox="0 -212 1024 1024"><path d="M512 800 q177 -4 294.5 -121.5 q117.5 -117.5 121.5 -294.5 q-4 -177 -121.5 -294.5 q-117.5 -117.5 -294.5 -121.5 q-177 4 -294.5 121.5 q-117.5 117.5 -121.5 294.5 q4 177 121.5 294.5 q117.5 117.5 294.5 121.5 ZM512 -17 q170 4 283.5 117.5 q113.5 113.5 117.5 283.5 q-4 170 -117.5 283.5 q-113.5 113.5 -283.5 117.5 q-170 -4 -283.5 -117.5 q-113.5 -113.5 -117.5 -283.5 q4 -170 117.5 -283.5 q113.5 -113.5 283.5 -117.5 ZM540 621 l0 -482 l-58 0 l0 482 l58 0 ZM752 351 l-482 0 l0 58 l482 0 l0 -58 Z"></path></symbol><symbol id="ic_arrowleft--" viewBox="0 -212 1024 1024"><path d="M757 -9 l-381 393 l381 393 l-54 56 l-436 -449 l54 -56 l382 -393 l54 56 Z"></path></symbol><symbol id="ic_phoneadd-" viewBox="0 -212 1024 1024"><path d="M632 -32 q26 0 43.5 18 q17.5 18 18.5 44 l0 104 l-353 0 q-19 1 -35.5 18.5 q-16.5 17.5 -17.5 44.5 l0 331 q1 27 17.5 44.5 q16.5 17.5 35.5 18.5 l24 -1 l-8 37 l0 0 l0 1 q1 10 10 11 l4 0 l115 -51 l208 2 l0 148 q-1 26 -18.5 43.5 q-17.5 17.5 -43.5 18.5 l-359 0 q-27 -1 -44.5 -18.5 q-17.5 -17.5 -17.5 -43.5 l0 -708 q0 -26 17.5 -43.5 q17.5 -17.5 44.5 -18.5 l359 0 ZM452 680 q-17 0 -28.5 12 q-11.5 12 -11.5 29 q0 17 11.5 29 q11.5 12 29 12 q17.5 0 29 -12 q11.5 -12 11.5 -29 q0 -17 -11.5 -28.5 q-11.5 -11.5 -29.5 -12.5 ZM395 15 q-4 0 -5.5 3.5 q-1.5 3.5 0 6.5 q1.5 3 5.5 3 l114 0 q4 0 6 -3 q2 -3 0 -6.5 q-2 -3.5 -6 -3.5 l-114 0 ZM395 15 l0 0 ZM753 174 q28 0 44 15 q16 15 16 37 l0 269 q0 22 -16 37 q-16 15 -44 15 l-252 -2 l-97 42 q-1 1 -3 1 q-8 -1 -8 -9 l6 -32 l-19 0 q-17 0 -30.5 -15 q-13.5 -15 -14.5 -37 l0 -269 q1 -22 14.5 -37 q13.5 -15 30.5 -15 l373 0 ZM426 388 q14 0 23.5 -9.5 q9.5 -9.5 9.5 -23.5 q0 -14 -9.5 -23.5 q-9.5 -9.5 -23.5 -9.5 q-14 0 -23.5 9.5 q-9.5 9.5 -9.5 23.5 q0 14 9.5 23.5 q9.5 9.5 23.5 9.5 ZM574 388 q14 0 23.5 -9.5 q9.5 -9.5 9.5 -23.5 q0 -14 -9.5 -23.5 q-9.5 -9.5 -23.5 -9.5 q-14 0 -23.5 9.5 q-9.5 9.5 -9.5 23.5 q0 14 9.5 23.5 q9.5 9.5 23.5 9.5 ZM722 388 q15 0 24.5 -9.5 q9.5 -9.5 9.5 -23.5 q0 -14 -9.5 -23.5 q-9.5 -9.5 -24 -9.5 q-14.5 0 -24 9.5 q-9.5 9.5 -9.5 23.5 q0 14 9.5 23.5 q9.5 9.5 23.5 9.5 ZM722 388 l0 0 Z"></path></symbol><symbol id="ic_code-" viewBox="0 -212 1024 1024"><path d="M223 95 l127 0 l0 127 l-127 0 l0 -127 ZM865 475 l-64 0 l0 -63 l-63 0 l0 63 l63 0 l0 71 l64 0 l0 64 l63 0 l0 -198 l-63 0 l0 63 ZM674 610 l-71 0 l0 -135 l71 0 l0 -63 l-134 0 l0 388 l134 0 l0 -63 l-71 0 l0 -64 l71 0 l0 -63 l64 0 l0 127 l63 0 l0 63 l127 0 l0 -63 l-63 0 l0 -64 l-64 0 l0 -127 l-127 0 l0 64 ZM96 412 l380 0 l0 388 l-380 0 l0 -388 ZM159 737 l254 0 l0 -262 l-254 0 l0 262 ZM223 546 l127 0 l0 127 l-127 0 l0 -127 ZM928 -32 l0 380 l-388 0 l0 -380 l388 0 ZM865 31 l-262 0 l0 254 l262 0 l0 -254 ZM96 -32 l380 0 l0 380 l-380 0 l0 -380 ZM159 285 l254 0 l0 -254 l-254 0 l0 254 ZM801 222 l-127 0 l0 -127 l127 0 l0 127 ZM801 95 l0 0 Z"></path></symbol><symbol id="ic_delet-" viewBox="0 -212 1024 1024"><path d="M512 -30 q175 4 292.5 121.5 q117.5 117.5 121.5 292.5 q-4 175 -121.5 292.5 q-117.5 117.5 -292.5 121.5 q-175 -4 -292.5 -121.5 q-117.5 -117.5 -121.5 -292.5 q4 -175 121.5 -292.5 q117.5 -117.5 292.5 -121.5 ZM719 539 l-155 -155 l155 -155 l-52 -52 l-155 155 l-155 -155 l-52 52 l155 155 l-155 155 l52 52 l155 -155 l155 155 l52 -52 ZM667 591 l0 0 Z"></path></symbol><symbol id="ic_arrowright-" viewBox="0 -212 1024 1024"><path d="M321 -65 l436 449 l-436 449 l-54 -56 l381 -393 l-381 -393 l54 -56 Z"></path></symbol><symbol id="ic_search-" viewBox="0 -212 1024 1024"><path d="M429 567 q-113 -3 -188.5 -78 q-75.5 -75 -77.5 -188 q2 -113 77.5 -188.5 q75.5 -75.5 188.5 -78.5 q113 3 188 78.5 q75 75.5 78 188.5 q-3 113 -78 188 q-75 75 -188 78 ZM881 800 l47 -47 l-242 -242 q37 -45 56 -98.5 q19 -53.5 19 -111.5 q-3 -142 -97 -235.5 q-94 -93.5 -235 -97.5 q-142 4 -235.5 97.5 q-93.5 93.5 -97.5 235.5 q4 141 97.5 235 q93.5 94 235.5 97 q58 0 111.5 -19 q53.5 -19 98.5 -56 l242 242 Z"></path></symbol><symbol id="ic_close-" viewBox="0 -212 1024 1024"><path d="M897 -32 l-385 392 l-385 -392 l-31 31 l385 393 l-370 377 l31 31 l370 -377 l370 377 l31 -31 l-370 -377 l385 -393 l-31 -31 Z"></path></symbol><symbol id="ic_chooseriqi-" viewBox="0 -212 1024 1024"><path d="M334 130 q-9 0 -15 -6.5 q-6 -6.5 -7 -15.5 l0 -103 q0 -9 6.5 -15.5 q6.5 -6.5 16 -6.5 q9.5 0 15.5 6.5 q6 6.5 7 15.5 l0 103 q-1 9 -7 15.5 q-6 6.5 -16 6.5 ZM690 130 q-10 0 -16 -6.5 q-6 -6.5 -7 -15.5 l0 -103 q1 -9 7 -15.5 q6 -6.5 15.5 -6.5 q9.5 0 16 6.5 q6.5 6.5 6.5 15.5 l0 103 q-1 9 -7 15.5 q-6 6.5 -15 6.5 ZM690 130 l0 0 ZM882 21 q19 0 31.5 12.5 q12.5 12.5 12.5 31.5 l0 676 q0 19 -12.5 31.5 q-12.5 12.5 -31.5 12.5 l-740 0 q-19 0 -31.5 -12.5 q-12.5 -12.5 -12.5 -31.5 l0 -676 q0 -19 12.5 -31.5 q12.5 -12.5 31.5 -12.5 l102 0 q9 0 15.5 6 q6.5 6 6.5 15.5 q0 9.5 -6.5 16 q-6.5 6.5 -15.5 6.5 l-72 0 q-13 0 -21.5 8.5 q-8.5 8.5 -8.5 20.5 l0 80 l740 0 l0 -80 q0 -12 -8.5 -20.5 q-8.5 -8.5 -21.5 -8.5 l-74 0 q-9 0 -15 -6.5 q-6 -6.5 -6 -16 q0 -9.5 6 -15.5 q6 -6 15 -6 l104 0 ZM882 219 l-740 0 l0 493 q0 12 8.5 20.5 q8.5 8.5 21.5 8.5 l680 0 q13 0 21.5 -8.5 q8.5 -8.5 8.5 -20.5 l0 -493 ZM882 712 l0 0 ZM421 65 q-9 0 -15.5 -6.5 q-6.5 -6.5 -6.5 -16 q0 -9.5 6.5 -15.5 q6.5 -6 15.5 -6 l180 0 q9 0 15.5 6 q6.5 6 6.5 15.5 q0 9.5 -6.5 16 q-6.5 6.5 -15.5 6.5 l-180 0 ZM234 341 q-7 0 -11.5 -6 q-4.5 -6 -4.5 -15.5 q0 -9.5 4.5 -16 q4.5 -6.5 11.5 -6.5 l131 0 q7 0 11.5 6.5 q4.5 6.5 4.5 16 q0 9.5 -4.5 15.5 q-4.5 6 -11.5 6 l-131 0 ZM445 341 q-6 0 -11 -6 q-5 -6 -5 -15.5 q0 -9.5 4.5 -16 q4.5 -6.5 11.5 -6.5 l131 0 q7 0 11.5 6.5 q4.5 6.5 4.5 16 q0 9.5 -4.5 15.5 q-4.5 6 -11.5 6 l-131 0 ZM663 341 q-7 0 -11.5 -6 q-4.5 -6 -4.5 -15.5 q0 -9.5 4.5 -16 q4.5 -6.5 11.5 -6.5 l131 0 q7 0 11.5 6.5 q4.5 6.5 4.5 16 q0 9.5 -4.5 15.5 q-4.5 6 -11.5 6 l-131 0 ZM234 466 q-7 0 -11.5 -6 q-4.5 -6 -4.5 -15.5 q0 -9.5 4.5 -15.5 q4.5 -6 11.5 -7 l131 0 q7 1 11.5 7 q4.5 6 4.5 15.5 q0 9.5 -4.5 15.5 q-4.5 6 -11.5 6 l-131 0 ZM445 466 q-6 0 -11 -6 q-5 -6 -5 -15.5 q0 -9.5 4.5 -15.5 q4.5 -6 11.5 -7 l131 0 q7 1 11.5 7 q4.5 6 4.5 15.5 q0 9.5 -4.5 15.5 q-4.5 6 -11.5 6 l-131 0 ZM663 466 q-7 0 -11.5 -6 q-4.5 -6 -4.5 -15.5 q0 -9.5 4.5 -15.5 q4.5 -6 11.5 -7 l131 0 q7 1 11.5 7 q4.5 6 4.5 15.5 q0 9.5 -4.5 15.5 q-4.5 6 -11.5 6 l-131 0 ZM234 600 q-7 0 -11.5 -6.5 q-4.5 -6.5 -4.5 -15.5 q0 -9 4.5 -15.5 q4.5 -6.5 11.5 -6.5 l131 0 q7 0 11.5 6.5 q4.5 6.5 4.5 15.5 q0 9 -4.5 15.5 q-4.5 6.5 -11.5 6.5 l-131 0 ZM445 600 q-6 0 -11 -6.5 q-5 -6.5 -5 -15.5 q0 -9 4.5 -15.5 q4.5 -6.5 11.5 -6.5 l131 0 q7 0 11.5 6.5 q4.5 6.5 4.5 15.5 q0 9 -4.5 15.5 q-4.5 6.5 -11.5 6.5 l-131 0 ZM663 600 q-7 0 -11.5 -6.5 q-4.5 -6.5 -4.5 -15.5 q0 -9 4.5 -15.5 q4.5 -6.5 11.5 -6.5 l131 0 q7 0 11.5 6.5 q4.5 6.5 4.5 15.5 q0 9 -4.5 15.5 q-4.5 6.5 -11.5 6.5 l-131 0 Z"></path></symbol><symbol id="ic_pingbixf-" viewBox="0 -212 1024 1024"><path d="M958 645 q2 -5 2 -12 l0 -456 l-263 208 l261 261 l0 -1 ZM512 464 l432 -344 q-14 -14 -34 -14 l-796 0 q-20 0 -34 13 l432 345 ZM337 394 l-273 -218 l0 457 q0 16 8 29 l4 -8 l261 -260 ZM123 684 l787 0 q5 0 10 -1 l-262 -267 l-147 117 l-131 -105 l-257 256 ZM377 430 l0 0 Z"></path></symbol><symbol id="ic_pingbijz--" viewBox="0 -212 1024 1024"><path d="M512 -64 q191 4 317.5 130.5 q126.5 126.5 130.5 317.5 q-4 191 -130.5 317.5 q-126.5 126.5 -317.5 130.5 q-191 -4 -317.5 -130.5 q-126.5 -126.5 -130.5 -317.5 q4 -191 130.5 -317.5 q126.5 -126.5 317.5 -130.5 ZM831 470 l0 -146 l-638 0 l0 146 l638 0 Z"></path></symbol><symbol id="ic_unchoose-" viewBox="0 -212 1024 1024"><path d="M512 840.14 q92 0 177 -36 q176 -80 244.5 -248 q68.5 -168 -2.5 -349 q-80 -176 -248 -244.5 q-168 -68.5 -349 2.5 q-151 67 -225 207 q-74 140 -43 303 q35 162 157.5 262 q122.5 100 288.5 103 ZM512 -56.86 q187 5 311.5 129.5 q124.5 124.5 129.5 312.5 q-5 187 -129.5 311.5 q-124.5 124.5 -311.5 129.5 q-188 -5 -312.5 -129.5 q-124.5 -124.5 -129.5 -311.5 q5 -188 129.5 -312.5 q124.5 -124.5 312.5 -129.5 Z"></path></symbol><symbol id="ic_xieyixuanzegougou-" viewBox="0 -212 1024 1024"><path d="M877 198 l-70 -71 l-375 372 l-213 -221 l-72 70 l283 293 l447 -443 Z"></path></symbol><symbol id="ic_xieyixuanze-" viewBox="0 -212 1024 1024"><path d="M156 -2 q-12 1 -19.5 8.5 q-7.5 7.5 -8.5 19.5 l0 721 q1 9 7 15 q6 6 15 6 l727 0 q9 0 15 -6 q6 -6 6 -15 l0 -727 q0 -9 -6 -15 q-6 -6 -15 -7 l-721 0 ZM877 -32 q21 1 36 15.5 q15 14.5 15 36.5 l0 727 q0 21 -15 36 q-15 15 -36 15 l-727 0 q-22 0 -36.5 -15 q-14.5 -15 -15.5 -36 l0 -721 q1 -25 17 -41 q16 -16 41 -17 l721 0 Z"></path></symbol><symbol id="ic_address-" viewBox="0 -212 1024 1024"><path d="M512 -64 q137 3 227.5 94 q90.5 91 94.5 228 q-20 216 -161 390 q-141 174 -161 184 q-20 -10 -161 -184 q-141 -174 -161 -390 q4 -137 94.5 -228 q90.5 -91 227.5 -94 ZM512 441 q78 -2 130 -53.5 q52 -51.5 54 -129.5 q-2 -78 -54 -130 q-52 -52 -130 -54 q-37 0 -70.5 14 q-33.5 14 -59.5 40 q-26 26 -40 59.5 q-14 33.5 -14 70.5 q2 78 54 129.5 q52 51.5 130 53.5 Z"></path></symbol><symbol id="ic_nosee-" viewBox="0 -212 1024 1024"><path d="M960 379 q-2 -11 -9 -20 q-45 -52 -98 -95 q-14 -12 -29 -23 l-148 99 q4 18 4 37 q-2 73 -49.5 121 q-47.5 48 -118.5 50 q-54 0 -98 -32 l-112 75 l-1 1 q58 32 123 47 q82 18 164 2 q75 -15 142 -52 q53 -29 101 -66.5 q48 -37.5 90 -80.5 q15 -16 30 -33 q7 -9 9 -20 l0 -2 q0 -1 0 -1 l0 -7 ZM512 462 q31 0 53 -18.5 q22 -18.5 29 -48.5 l-98 66 q8 1 16 1 ZM881 159 q9 -6 9 -18 q0 -9 -6 -15 q-6 -6 -15 -6 q-6 0 -11 3 l-729 486 q-9 6 -9 18 q0 9 6 15 q6 6 15 6 q6 0 11 -3 l0 -1 l729 -485 ZM512 291 q-33 1 -56 22 q-23 21 -27 54 l106 -72 q-11 -4 -23 -4 ZM708 177 l8 -5 q-56 -29 -117 -43 q-81 -18 -163 -2 q-75 15 -143 52 q-53 29 -100.5 66.5 q-47.5 37.5 -89.5 80.5 q-16 16 -30 33 q-19 25 0 50 q44 52 97 95 q13 11 26 21 l154 -104 q-6 -22 -6 -44 q2 -73 49.5 -121.5 q47.5 -48.5 118.5 -49.5 q28 0 54 9 q26 9 48 26 l94 -64 Z"></path></symbol><symbol id="ic_see-" viewBox="0 -212 1024 1024"><path d="M512 286 q39 2 66.5 29 q27.5 27 32.5 69 q-5 42 -32.5 69 q-27.5 27 -66.5 29 q-39 -2 -66.5 -29.5 q-27.5 -27.5 -32.5 -68.5 q5 -42 32.5 -69 q27.5 -27 66.5 -29 ZM519 130 q199 13 317 114 q118 101 124 140 q-6 38 -124 139.5 q-118 101.5 -318 114.5 l-12 0 q-200 -13 -318 -114.5 q-118 -101.5 -124 -139.5 q6 -39 124 -140 q118 -101 319 -114 l12 0 ZM513 579 q78 -3 131 -58 q53 -55 59 -137 q-6 -82 -59 -137 q-53 -55 -131 -58 q-79 3 -132 58 q-53 55 -59 137 q6 82 59 137 q53 55 132 58 Z"></path></symbol><symbol id="ic_miniaoketoutiao-" viewBox="0 -212 1024 1024"><path d="M523 -60.5 q31 16 180.5 170.5 q149.5 154.5 170.5 360.5 q-4 153 -106.5 255.5 q-102.5 102.5 -256.5 106.5 q-153 -4 -255.5 -106.5 q-102.5 -102.5 -106.5 -255.5 q21 -206 170.5 -360.5 q149.5 -154.5 180.5 -170.5 q11 -7 23 0 ZM511 795.5 q138 -4 230 -96 q92 -92 95 -229 q-14 -171 -140 -311 q-126 -140 -185 -181 q-58 41 -184 181 q-126 140 -140 311 q3 138 95 229.5 q92 91.5 229 95.5 ZM511 795.5 l0 0 ZM748 376.5 q8 0 13 5 q5 5 5 13 q0 8 -5 13.5 q-5 5.5 -13 5.5 l-118 0 l-59 119 q-5 10 -17 10 l-2 0 q-12 -2 -16 -15 l-51 -223 l-42 98 q-5 11 -17 11 l-151 0 q-8 0 -13 -5.5 q-5 -5.5 -5 -13 q0 -7.5 5 -13 q5 -5.5 13 -5.5 l138 0 l60 -139 q6 -12 19 -11 q13 1 16 14 l53 228 l41 -82 q6 -10 17 -10 l129 0 ZM748 376.5 l0 0 Z"></path></symbol><symbol id="ic_shenhez-" viewBox="0 -212 1024 1024"><path d="M512 -32 q177 4 294.5 121.5 q117.5 117.5 121.5 294.5 q-4 177 -121.5 294.5 q-117.5 117.5 -294.5 121.5 q-177 -4 -294.5 -121.5 q-117.5 -117.5 -121.5 -294.5 q4 -177 121.5 -294.5 q117.5 -117.5 294.5 -121.5 ZM287 445 q26 0 43.5 -17.5 q17.5 -17.5 17.5 -43.5 q0 -19 -10 -34 q-10 -15 -27.5 -22.5 q-17.5 -7.5 -35.5 -3.5 q-18 4 -31 17 q-13 13 -16.5 31 q-3.5 18 3.5 35.5 q7 17.5 22 27.5 q15 10 34 10 ZM512 445 q25 0 43 -18 q18 -18 18 -43.5 q0 -25.5 -17.5 -43 q-17.5 -17.5 -43.5 -17.5 q-26 0 -43.5 17.5 q-17.5 17.5 -17.5 43.5 q0 26 17.5 43.5 q17.5 17.5 43.5 17.5 ZM737 445 q25 0 43 -18 q18 -18 17.5 -43.5 q-0.5 -25.5 -17.5 -43 q-17 -17.5 -43 -17.5 q-26 0 -43.5 17.5 q-17.5 17.5 -17.5 43.5 q0 26 17.5 43.5 q17.5 17.5 43.5 17.5 Z"></path></symbol><symbol id="ic_weirenz-" viewBox="0 -212 1024 1024"><path d="M512 -32 q177 4 294.5 121.5 q117.5 117.5 121.5 294.5 q-4 177 -121.5 294.5 q-117.5 117.5 -294.5 121.5 q-177 -4 -294.5 -121.5 q-117.5 -117.5 -121.5 -294.5 q4 -177 121.5 -294.5 q117.5 -117.5 294.5 -121.5 ZM512 635 q25 -1 42 -18 q17 -17 17 -42.5 q0 -25.5 -17 -42 q-17 -16.5 -42 -16.5 q-25 0 -42 16.5 q-17 16.5 -17 42 q0 25.5 17 42.5 q17 17 42 18 ZM572 193 q-1 -25 -18 -42 q-17 -17 -42 -17 q-25 0 -42 17 q-17 17 -18 42 l0 213 q1 26 18 42.5 q17 16.5 42 16.5 q25 0 42 -16.5 q17 -16.5 18 -42.5 l0 -213 Z"></path></symbol><symbol id="ic_discussion-" viewBox="0 -212 1024 1024"><path d="M848 -23 q48 2 79.5 33.5 q31.5 31.5 32.5 78.5 l0 449 q-1 48 -32.5 79.5 q-31.5 31.5 -79.5 32.5 l-220 0 l-116 142 l-116 -142 l-220 0 q-48 -1 -79.5 -32.5 q-31.5 -31.5 -32.5 -79.5 l0 -449 q1 -47 32.5 -78.5 q31.5 -31.5 79.5 -33.5 l672 0 ZM269 370 q23 0 38.5 -15.5 q15.5 -15.5 15.5 -38.5 q0 -23 -15.5 -38 q-15.5 -15 -38.5 -15 q-23 0 -38 15 q-15 15 -15 38 q0 23 15 38.5 q15 15.5 38 15.5 ZM513 370 q23 0 38 -15.5 q15 -15.5 15 -38.5 q0 -23 -15 -38 q-15 -15 -38 -15 q-23 0 -38.5 15 q-15.5 15 -15.5 38 q0 23 15.5 38.5 q15.5 15.5 38.5 15.5 ZM756 370 q23 0 38.5 -15.5 q15.5 -15.5 15.5 -38.5 q0 -23 -15.5 -38 q-15.5 -15 -38.5 -15 q-23 0 -38 15 q-15 15 -15 38 q0 23 15 38.5 q15 15.5 38 15.5 ZM756 370 l0 0 Z"></path></symbol><symbol id="ic_discuss-" viewBox="0 -212 1024 1024"><path d="M321 778 q10 0 18 -6 l176 -151 q7 -6 16 -6 l352 0 q33 -1 55 -23 q22 -22 22 -55 l0 -469 q0 -33 -22 -55 q-22 -22 -55 -22 l-742 0 q-33 0 -54.5 22 q-21.5 22 -22.5 55 l0 469 q1 33 22.5 55 q21.5 22 54.5 23 l129 0 q10 0 17.5 7.5 q7.5 7.5 7.5 17.5 l0 112 q0 11 7.5 18.5 q7.5 7.5 18.5 7.5 ZM873 55 q10 0 17 6.5 q7 6.5 7 16.5 l0 441 q0 10 -7 17 q-7 7 -17 7 l-340 0 q-27 0 -49 18 l-128 107 l0 -52 q-1 -31 -22 -51.5 q-21 -20.5 -53 -21.5 l-124 0 q-11 0 -18 -7 q-7 -7 -7 -17 l0 -441 q0 -10 7 -16.5 q7 -6.5 18 -6.5 l716 0 ZM157 55 l0 0 Z"></path></symbol><symbol id="ic_lovewhite-" viewBox="0 -212 1024 1024"><path d="M696 12.97 q121 -14 202 75.5 q81 89.5 54 213.5 q-18 61 -56 101.5 q-38 40.5 -79 78.5 l-171 169 l-56 61 q-33 35 -68 44 q-28 4 -42.5 -7.5 q-14.5 -11.5 -26.5 -23.5 l-263 -261 q-56 -49 -101 -122 q-45 -73 -8 -181 q15 -38 40 -68 q20 -25 50.5 -43.5 q30.5 -18.5 64.5 -29.5 l53 -9 q91 1 134 37 q43 36 89 77 l48 -47 l30 -25 q44 -29 106 -40 ZM882 328.97 q12 -21 18 -54.5 q6 -33.5 -1 -66.5 q-20 -77 -92.5 -120 q-72.5 -43 -163.5 -2 q-39 22 -68.5 56 q-29.5 34 -62.5 62 l-89 -89 q-31 -17 -56 -31.5 q-25 -14.5 -76 -16.5 l-38 6 q-26 8 -48 22 q-22 14 -38 31 q-30 33 -40.5 86.5 q-10.5 53.5 10.5 105.5 q13 28 34 49 q21 21 42 41 l256 254 l20 22 q12 14 23 15 q15 -4 55 -45 l56 -59 l171 -169 l47 -46 q24 -23 41 -51 ZM882 328.97 l0 0 Z"></path></symbol><symbol id="ic_collect-" viewBox="0 -212 1024 1024"><path d="M935 358.92 q18 -18 23.5 -41 q5.5 -23 -3 -46.5 q-8.5 -23.5 -27 -38.5 q-18.5 -15 -42.5 -19 l-206 -30 l-89 -186 q-11 -23 -32 -36 q-21 -13 -47 -13 q-26 0 -47 13 q-21 13 -32 36 l-89 185 l-206 31 q-24 4 -42.5 19 q-18.5 15 -27 38.5 q-8.5 23.5 -3 46.5 q5.5 23 23.5 41 l151 151 l-35 209 q-4 25 5.5 47.5 q9.5 22.5 30.5 36.5 q21 14 45.5 15.5 q24.5 1.5 46.5 -9.5 l179 -97 l179 97 q22 11 46.5 10 q24.5 -1 45.5 -15.5 q21 -14.5 30.5 -37 q9.5 -22.5 5.5 -47.5 l-35 -209 l151 -151 ZM906 288.92 q5 18 -8 33 l-161 160 q-9 10 -7 23 l37 223 q1 10 -2.5 18.5 q-3.5 8.5 -11.5 13.5 q-18 11 -37 2 l-192 -103 q-12 -6 -25 0 l-191 103 q-19 9 -36.5 -2.5 q-17.5 -11.5 -14.5 -31.5 l37 -223 q2 -13 -7 -23 l-161 -160 q-13 -15 -8 -33 q3 -9 10.5 -15 q7.5 -6 17.5 -8 l219 -32 q14 -3 20 -15 l96 -198 q4 -9 12.5 -14 q8.5 -5 18.5 -5 q10 0 18.5 5 q8.5 5 12.5 14 l96 198 q6 12 20 15 l219 32 q20 4 28 23 ZM490 157.92 q3 -7 -1.5 -13 q-4.5 -6 -12 -5.5 q-7.5 0.5 -11.5 7.5 l-54 124 l-143 28 q-10 3 -9 14 q1 11 12 12 l152 -29 q7 -2 10 -8 l57 -130 ZM233 330.92 q6 -1 9 -5 q3 -4 2 -10 q-1 -6 -5 -9 q-4 -3 -10 -2 l-9 1 q-11 3 -10 14.5 q1 11.5 12 12.5 l2 0 l9 -2 ZM233 330.92 l0 0 Z"></path></symbol><symbol id="ic_wallet-" viewBox="0 -212 1024 1024"><path d="M825 833 q11 -1 18.5 -8 q7.5 -7 7.5 -18 l0 -341 l97 -112 q7 -8 6.5 -18.5 q-0.5 -10.5 -8.5 -17.5 l-408 -376 q-8 -7 -17.5 -7 q-9.5 0 -17.5 7 l-425 375 q-8 7 -8.5 18 q-0.5 11 6.5 19 l99 112 l2 341 q0 11 7.5 18 q7.5 7 18.5 8 l622 0 ZM227 456 q0 -10 -6 -17 l-89 -100 l388 -342 l372 342 l-87 100 q-6 7 -6 17 l0 324 l-570 0 l-2 -324 ZM521 428 q11 -1 19 -9 l108 -114 q7 -8 6.5 -18.5 q-0.5 -10.5 -8.5 -18.5 q-8 -8 -18.5 -7.5 q-10.5 0.5 -18.5 8.5 l-89 95 l-93 -95 q-8 -8 -18.5 -8 q-10.5 0 -18.5 7.5 q-8 7.5 -8 18 q0 10.5 8 18.5 l112 115 q8 8 19 8 ZM518 656 q11 0 18.5 -7.5 q7.5 -7.5 8.5 -18.5 l0 -228 q-1 -12 -8.5 -19 q-7.5 -7 -18.5 -7 q-11 0 -18.5 7 q-7.5 7 -7.5 19 l0 228 q0 11 7.5 18.5 q7.5 7.5 18.5 7.5 ZM657 467 q11 0 18.5 -7.5 q7.5 -7.5 7.5 -18.5 q0 -11 -7.5 -18.5 q-7.5 -7.5 -18.5 -7.5 l-282 0 q-11 0 -18.5 7.5 q-7.5 7.5 -7.5 18.5 q0 11 7.5 18.5 q7.5 7.5 18.5 7.5 l282 0 ZM664 552 q12 -1 19 -8 q7 -7 7 -18.5 q0 -11.5 -7 -18.5 q-7 -7 -19 -8 l-289 0 q-11 1 -18.5 8 q-7.5 7 -7.5 18.5 q0 11.5 7.5 18.5 q7.5 7 18.5 8 l289 0 Z"></path></symbol><symbol id="ic_set-" viewBox="0 -212 1024 1024"><path d="M646 807 q11 0 22 -4 l116 -64 q15 -11 20 -29 q5 -18 -2 -35 q-1 -1 -5.5 -14.5 q-4.5 -13.5 -4.5 -30.5 q1 -49 34 -82 q33 -33 82 -34 l4 0 q14 0 24.5 -11 q10.5 -11 14.5 -31 q1 -3 5 -30 q4 -27 4 -57.5 q0 -30.5 -4 -57.5 q-4 -27 -5 -31 q-4 -19 -14.5 -30 q-10.5 -11 -24.5 -11 l-4 0 q-49 -2 -82 -34.5 q-33 -32.5 -34 -82.5 q0 -16 4.5 -29.5 q4.5 -13.5 5.5 -14.5 q7 -18 2 -35.5 q-5 -17.5 -20 -28.5 l-114 -64 q-11 -4 -22 -4 q-25 0 -42 17 q-11 12 -37.5 30.5 q-26.5 18.5 -54.5 20.5 q-27 -2 -53.5 -20.5 q-26.5 -18.5 -38.5 -31.5 q-17 -17 -42 -17 q-11 0 -21 4 l-119 65 q-15 11 -20 28.5 q-5 17.5 2 35.5 q1 1 5.5 14.5 q4.5 13.5 4.5 29.5 q-1 50 -34 82.5 q-33 32.5 -82 34.5 l-4 0 q-14 0 -24.5 11 q-10.5 11 -14.5 30 q-1 4 -5 31 q-4 27 -4 57.5 q0 30.5 4 57.5 q4 27 5 30 q4 19 14 30.5 q10 11.5 24 11.5 l5 0 q49 1 82 34 q33 33 34 82 q0 17 -4.5 30.5 q-4.5 13.5 -5.5 14.5 q-7 17 -2 35 q5 18 20 29 l112 63 q11 4 22 4 q25 -1 42 -18 q11 -12 38 -32 q27 -20 56 -22 q28 2 55 22 q27 20 39 33 q17 18 42 18 ZM643 754 q-18 -20 -40 -35 q-50 -37 -93.5 -37 q-43.5 0 -92.5 36 q-22 15 -40 34 q-1 1 -3 1 l-103 -57 q2 -5 8 -23.5 q6 -18.5 6 -42.5 q-1 -69 -46.5 -116 q-45.5 -47 -113.5 -53 q-2 -6 -5 -29.5 q-3 -23.5 -3 -47 q0 -23.5 3 -47 q3 -23.5 5 -30.5 q68 -5 113.5 -52 q45.5 -47 46.5 -117 q0 -23 -5.5 -41.5 q-5.5 -18.5 -8.5 -23.5 l109 -60 q2 0 4 1 q18 19 39 34 q49 34 91 34 q42 0 91 -34 q21 -14 39 -32 q2 -1 4 -1 l105 58 q-2 5 -8 23.5 q-6 18.5 -6 41.5 q1 70 46.5 117 q45.5 47 113.5 52 q2 7 5 30.5 q3 23.5 3 47 q0 23.5 -3 47 q-3 23.5 -5 29.5 q-68 5 -113.5 52.5 q-45.5 47.5 -46.5 117.5 q0 23 6 41.5 q6 18.5 8 23.5 l-107 59 q-1 0 -3 -1 ZM510 539 q66 -2 110 -45.5 q44 -43.5 45 -109.5 q-1 -66 -45 -110 q-44 -44 -110 -45 q-66 1 -110 45 q-44 44 -45 110 q1 66 45 109.5 q44 43.5 110 45.5 ZM510 281 q44 1 72.5 30 q28.5 29 29.5 73 q-1 43 -29.5 72 q-28.5 29 -72 29 q-43.5 0 -72.5 -29 q-29 -29 -29 -72.5 q0 -43.5 28.5 -72.5 q28.5 -29 72.5 -30 ZM510 281 l0 0 Z"></path></symbol><symbol id="ic_xiaosanj-" viewBox="0 -212 1024 1024"><path d="M60 610 l904 0 l-452 -452 l-452 452 Z"></path></symbol><symbol id="ic_rili-" viewBox="0 -212 1024 1024"><path d="M815 72 q29 0 55.5 11 q26.5 11 47 31.5 q20.5 20.5 31.5 47 q11 26.5 11 55.5 l0 450 q-2 61 -42.5 102 q-40.5 41 -102.5 43 l-606 0 q-62 -2 -102.5 -43 q-40.5 -41 -42.5 -102 l0 -105 q0 -12 8.5 -20.5 q8.5 -8.5 21 -8.5 q12.5 0 20.5 8.5 q8 8.5 8 20.5 l0 105 q1 36 25.5 60.5 q24.5 24.5 61.5 25.5 l606 0 q37 -1 61.5 -25.5 q24.5 -24.5 25.5 -60.5 l0 -450 q-1 -37 -25.5 -61.5 q-24.5 -24.5 -61.5 -25.5 l-75 0 l0 37 q-1 23 -12 42 q-11 19 -31 30.5 q-20 11.5 -42 11.5 q-22 0 -42 -11.5 q-20 -11.5 -31 -30.5 q-11 -19 -12 -42 l0 -37 l-131 0 l0 34 q-1 36 -25 60 q-24 24 -59.5 24 q-35.5 0 -59.5 -24 q-24 -24 -25 -60 l0 -34 l-61 0 q-37 1 -61.5 25.5 q-24.5 24.5 -25.5 61.5 l0 160 q0 13 -8 21 q-8 8 -20.5 8 q-12.5 0 -21 -8 q-8.5 -8 -8.5 -21 l0 -160 q2 -62 42.5 -103 q40.5 -41 102.5 -42 l61 0 l0 -33 q1 -36 25 -60 q24 -24 59.5 -24 q35.5 0 59.5 24 q24 24 25 60 l0 33 l131 0 l0 -31 q1 -35 25 -59 q24 -24 60 -24 q36 0 60 24 q24 24 25 59 l0 31 l75 0 ZM389 39 q-1 -14 -10.5 -24 q-9.5 -10 -24 -10 q-14.5 0 -24 10 q-9.5 10 -10.5 24 l0 125 q1 15 10.5 24.5 q9.5 9.5 24 9.5 q14.5 0 24 -9.5 q9.5 -9.5 10.5 -24.5 l0 -125 ZM689 41 q0 -14 -10 -23.5 q-10 -9.5 -24.5 -9.5 q-14.5 0 -24 9.5 q-9.5 9.5 -9.5 23.5 l0 126 q0 14 9.5 23.5 q9.5 9.5 24 9.5 q14.5 0 24.5 -9.5 q10 -9.5 10 -23.5 l0 -126 Z"></path></symbol><symbol id="ic_clockoi-" viewBox="0 -212 1024 1024"><path d="M512 832.85 q90 0 171.5 -33.5 q81.5 -33.5 145.5 -97.5 q64 -64 97.5 -145.5 q33.5 -81.5 33.5 -171.5 q0 -119 -56.5 -219 q-56.5 -100 -157.5 -162.5 q-101 -62.5 -215.5 -67 q-114.5 -4.5 -221.5 48.5 q-91 47 -154 129 q-7 9 -5.5 20 q1.5 11 11 18 q9.5 7 20.5 6 q11 -1 18 -10 q57 -75 138 -115 q81 -40 175 -41 q167 4 278 115 q111 111 115 278 q-4 167 -115 278 q-111 111 -278 115 q-167 -4 -278 -115 q-111 -111 -115 -278 q0 -43 9 -85 q2 -12 -3.5 -21 q-5.5 -9 -17 -11.5 q-11.5 -2.5 -21 3 q-9.5 5.5 -12.5 17.5 q-10 48 -10 97 q0 90 33.5 171.5 q33.5 81.5 97.5 145.5 q64 64 145.5 97.5 q81.5 33.5 171.5 33.5 ZM692 328.85 q12 1 19.5 9 q7.5 8 7.5 19.5 q0 11.5 -7.5 19 q-7.5 7.5 -19.5 8.5 l-180 0 q-12 0 -19.5 -8 q-7.5 -8 -8.5 -20 l0 -180 q0 -16 14 -24 q14 -8 28 0 q14 8 14 24 l0 152 l152 0 Z"></path></symbol><symbol id="ic_end-" viewBox="0 -212 1024 1024"><path d="M512 836 q164 -3 284.5 -102.5 q120.5 -99.5 154.5 -260.5 q29 -162 -46 -299 q-75 -137 -226 -201 q-13 -5 -24.5 3.5 q-11.5 8.5 -9.5 23 q2 14.5 15 20.5 q115 47 181.5 145.5 q66.5 98.5 67.5 222.5 q-4 169 -116 281 q-112 112 -281 117 q-169 -5 -281 -117 q-112 -112 -116 -281 q1 -120 64.5 -217.5 q63.5 -97.5 173.5 -146.5 q10 -5 13.5 -14 q3.5 -9 -0.5 -19 q-4 -10 -13.5 -13.5 q-9.5 -3.5 -19.5 0.5 q-147 67 -218 204.5 q-71 137.5 -41 296.5 q36 159 156 256.5 q120 97.5 282 100.5 ZM487 278 l50 0 l0 -346 l-50 0 l0 346 Z"></path></symbol><symbol id="ic_tancenggou" viewBox="0 -212 1024 1024"><path d="M438 888.27 q8 8 19 8 q11 0 19 -8 l950 -935 q4 -4 4 -9.5 q0 -5.5 -4 -9.5 l-59 -58 q-9 -8 -20 -1 l-869 725 q-9 7 -21 7.5 q-12 0.5 -22 -6.5 l-351 -270 q-5 -3 -10.5 -2.5 q-5.5 0.5 -8.5 5.5 l-62 84 q-7 11 1 21 l434 449 Z"></path></symbol><symbol id="ic_collectfullgg-" viewBox="0 -212 1024 1024"><path d="M923 276.91 q7 21 2 41.5 q-5 20.5 -20 36.5 l-144 149 l33 206 q3 22 -5 42 q-8 20 -26 33 q-18 13 -39 14 q-21 1 -40 -9 l-172 -96 l-172 96 q-19 10 -40 9 q-21 -1 -39 -14 q-18 -13 -26 -33 q-8 -20 -5 -42 l33 -206 l-144 -149 q-15 -16 -20 -36.5 q-5 -20.5 2 -41.5 q7 -21 23 -34.5 q16 -13.5 37 -16.5 l197 -30 l86 -183 q9 -21 27.5 -32.5 q18.5 -11.5 40.5 -11.5 q22 0 40.5 11.5 q18.5 11.5 27.5 32.5 l86 183 l197 30 q21 3 37 16.5 q16 13.5 23 34.5 ZM848 334.91 q14 -14 7.5 -33.5 q-6.5 -19.5 -27.5 -22.5 l-191 -28 q-8 -1 -11 -9 l-83 -178 q-5 -10 -13.5 -21 q-8.5 -11 -19.5 -11 q-11 0 -19.5 11 q-8.5 11 -13.5 21 l-83 178 q-3 8 -11 9 l-191 28 q-21 3 -28 22 q-3 9 -1 18 q2 9 9 16 l141 136 l8 7 q4 3 4 7 l-33 204 l-5 21 q-3 12 4 19 q15 8 26 4 q11 -4 20 -10 l166 -87 q7 -4 14 0 l166 87 q10 6 22.5 9.5 q12.5 3.5 21 -2.5 q8.5 -6 10 -18.5 q1.5 -12.5 0.5 -22.5 l-33 -204 q-1 -8 5 -14 l139 -136 Z"></path></symbol><symbol id="ic_collectfull-" viewBox="0 -212 1024 1024"><path d="M924 275.91 q7 21 2 41.5 q-5 20.5 -20 36.5 l-145 149 l34 206 q3 22 -5 42 q-8 20 -26 33 q-18 13 -39.5 14 q-21.5 1 -40.5 -9 l-172 -95 l-172 95 q-19 10 -40 9 q-21 -1 -39.5 -14 q-18.5 -13 -26.5 -33 q-8 -20 -5 -42 l34 -206 l-145 -149 q-15 -16 -20 -36.5 q-5 -20.5 2 -41.5 q7 -21 23 -34.5 q16 -13.5 37 -16.5 l198 -30 l86 -183 q9 -21 27.5 -32.5 q18.5 -11.5 40.5 -11.5 q22 0 40.5 11.5 q18.5 11.5 27.5 32.5 l86 183 l198 30 q21 3 37 16.5 q16 13.5 23 34.5 Z"></path></symbol><symbol id="ic_zjtzx--" viewBox="0 -212 1024 1024"><path d="M512 -65 q191 5 317.5 131.5 q126.5 126.5 130.5 316.5 q-4 191 -130.5 317.5 q-126.5 126.5 -317.5 131.5 q-191 -5 -317.5 -131.5 q-126.5 -126.5 -130.5 -317.5 q4 -190 130.5 -316.5 q126.5 -126.5 317.5 -131.5 ZM682 633 q11 -3 16.5 -11 q5.5 -8 4.5 -19 q-1 -11 -8.5 -17.5 q-7.5 -6.5 -18.5 -6.5 l-326 0 q-10 0 -18 5 q-8 5 -10.5 13.5 q-2.5 8.5 0.5 17 q3 8.5 10 13.5 q7 5 16 5 l328 0 q3 0 6 0 ZM804 274 l-2 -4 q-4 -14 -15.5 -21 q-11.5 -7 -25.5 -4.5 q-14 2.5 -22.5 13 q-8.5 10.5 -7.5 25 q1 14.5 12 25.5 l-109 66 q-6 5 -10 4 q-4 -1 -7 -8 l-92 -166 q19 -13 22.5 -28.5 q3.5 -15.5 -7.5 -29.5 q-10 -12 -26 -13 q-16 -1 -27.5 10 q-11.5 11 -11.5 28 q2 23 23 32 l-92 170 q-5 8 -14 3 l-111 -68 l3 -4 q7 -9 8.5 -19.5 q1.5 -10.5 -3.5 -20.5 q-5 -10 -14.5 -15.5 q-9.5 -5.5 -20.5 -5 q-11 0.5 -19.5 7.5 q-8.5 7 -12.5 18 l-2 5 l0 13 l4 10 q11 20 35 20 l63 215 q1 7 4.5 9 q3.5 2 10.5 2 l350 0 q7 0 10 -2.5 q3 -2.5 5 -8.5 l63 -215 q31 -1 39 -30 l0 -13 Z"></path></symbol><symbol id="ic_chulizhong-" viewBox="0 -212 1024 1024"><path d="M781 673 q8 -8 17.5 -7 q9.5 1 13.5 13 q8 8 8 18 q0 10 -8 18 q-20 17 -43 34 q-23 17 -46 30 q-1 4 -4 4.5 q-3 0.5 -7 0.5 q-4 0 -10.5 -4 q-6.5 -4 -10.5 -12 q-4 -12 -1 -22 q3 -10 12 -15 q39 -25 79 -58 ZM612 768 q8 -3 17.5 2.5 q9.5 5.5 14.5 13.5 q1 24 -22 32 q-54 15 -110 16 q-191 -5 -317 -131.5 q-126 -126.5 -131 -316.5 q5 -191 131 -317.5 q126 -126.5 317 -130.5 q100 0 189 41 q89 41 153 117 l0 -27 q1 -12 8 -19 q7 -7 19 -7 q12 0 19 7 q7 7 7 19 l0 132 l-132 0 q-12 0 -19 -7 q-7 -7 -7 -19 q0 -12 7 -19.5 q7 -7.5 19 -7.5 l53 0 q-56 -75 -138 -116 q-82 -41 -178 -42 q-167 5 -279 117 q-112 112 -116 278 q4 167 116 279 q112 112 279 117 q27 0 51.5 -1.5 q24.5 -1.5 48.5 -9.5 ZM918 494 q12 1 17.5 11 q5.5 10 -2.5 26 q-15 54 -47 100 q-4 4 -8.5 7.5 q-4.5 3.5 -12.5 4 q-8 0.5 -16 -7 q-8 -7.5 -10.5 -17.5 q-2.5 -10 5.5 -18 q12 -20 23 -43 q11 -23 19 -47 q4 -8 12 -13.5 q8 -5.5 20 -2.5 ZM955 304 q3 20 4 39 q1 19 1 35 l0 32 q0 12 -7 19 q-7 7 -19.5 7 q-12.5 0 -19.5 -7 q-7 -7 -7 -19 l0 -26 q0 -17 -0.5 -35 q-0.5 -18 -4.5 -34 q-4 -12 2.5 -21.5 q6.5 -9.5 18.5 -10.5 q12 -3 21.5 3 q9.5 6 10.5 18 ZM955 304 l0 0 ZM517 73 q12 0 19 7 q7 7 7 19 l0 279 l227 0 q12 0 19 7.5 q7 7.5 7 19.5 q0 12 -7 19 q-7 7 -19 7 l-279 0 l0 -332 q0 -12 7 -19 q7 -7 19 -7 ZM517 73 l0 0 Z"></path></symbol><symbol id="ic_yituikuan-" viewBox="0 -212 1024 1024"><path d="M662 178 l-110 187 l87 0 l0 41 l-101 0 l0 57 l101 0 l0 41 l-101 0 l0 83 l-52 0 l0 -83 l-104 0 l0 -41 l104 0 l0 -57 l-104 0 l0 -41 l89 0 l-109 -187 l59 0 q76 139 92 176 l1 0 q6 -15 31 -62 l62 -114 l55 0 ZM607 178 l0 0 ZM765 267 l91 -22 q-43 -104 -134 -167.5 q-91 -63.5 -210 -65.5 q-181 6 -289 137.5 q-108 131.5 -73 319.5 q25 106 100 180 q75 74 181 97 q138 26 249.5 -32 q111.5 -58 166.5 -171 l48 0 q-49 114 -150.5 183 q-101.5 69 -232.5 71 q-176 -4 -293 -119.5 q-117 -115.5 -121 -292.5 q4 -176 121 -293.5 q117 -117.5 293 -122.5 q133 2 235.5 74.5 q102.5 72.5 149.5 190.5 l78 -19 l-71 163 l-139 -111 ZM904 378 l0 0 Z"></path></symbol><symbol id="ic_wenhao-" viewBox="0 -212 1024 1024"><path d="M512 10 q-73 -1 -141 27 q-70 29 -124 82.5 q-54 53.5 -82 123 q-28 69.5 -28 142 q0 72.5 28.5 141.5 q28.5 69 82 123 q53.5 54 123.5 82 q107 42 215.5 20 q108.5 -22 190.5 -102 q54 -54 82 -124 q42 -107 20 -215 q-22 -108 -102 -191 q-54 -54 -124 -82 q-68 -27 -141 -27 ZM512 -32 q84 0 159.5 31.5 q75.5 31.5 135.5 90.5 q121 128 121 294 q0 166 -121 294 q-62 61 -138 91.5 q-76 30.5 -157 30.5 q-81 0 -157 -30.5 q-76 -30.5 -138 -91.5 q-121 -128 -121 -294 q0 -166 121 -294 q62 -61 138 -91.5 q76 -30.5 157 -30.5 ZM513 169 q62 0 99.5 34.5 q37.5 34.5 37.5 82.5 q0 28 -13.5 51.5 q-13.5 23.5 -50.5 56.5 q-26 24 -34 34.5 q-8 10.5 -11.5 24 q-3.5 13.5 -4.5 45.5 l-50 0 l-1 -16 q1 -31 9 -53 q7 -17 21 -34 q10 -13 37.5 -36.5 q27.5 -23.5 35.5 -38 q8 -14.5 8 -31.5 q0 -30 -24 -53 q-24 -23 -58 -23 q-34 0 -56 20.5 q-22 20.5 -29 65.5 l-54 -7 q8 -59 43.5 -91 q35.5 -32 94.5 -32 ZM512 535 q14 0 23 9 q9 9 9 23 q0 14 -9 23 q-9 9 -22.5 9 q-13.5 0 -22.5 -9 q-9 -9 -9 -23 q0 -14 9 -23 q9 -9 22 -9 Z"></path></symbol><symbol id="ic_tijiaoshenhez-" viewBox="0 -212 1024 1024"><path d="M511 -64 q191 5 317 131 q126 126 131 317 q-5 190 -131 316.5 q-126 126.5 -317 131.5 q-190 -5 -316.5 -131 q-126.5 -126 -130.5 -317 q4 -191 130.5 -317 q126.5 -126 316.5 -131 ZM791 454 q12 0 20 -8 q8 -8 8 -20 q0 -12 -8 -20 q-8 -8 -20 -8 l-252 0 l0 -280 q0 -12 -8 -20 q-8 -8 -20 -8 q-12 0 -19.5 8 q-7.5 8 -8.5 20 l0 308 q1 12 8.5 20 q7.5 8 19.5 8 l280 0 ZM791 454 l0 0 Z"></path></symbol><symbol id="ic_finished-" viewBox="0 -212 1024 1024"><path d="M512 -8 q-80 0 -151.5 29.5 q-71.5 29.5 -127.5 85.5 q-56 56 -85.5 127 q-29.5 71 -29.5 150.5 q0 79.5 29.5 150.5 q29.5 71 85.5 127 q56 56 127.5 85.5 q71.5 29.5 151 29.5 q79.5 0 151 -29.5 q71.5 -29.5 128 -85.5 q56.5 -56 86 -127 q29.5 -71 29.5 -150.5 q0 -79.5 -29.5 -150.5 q-29.5 -71 -86 -127 q-56.5 -56 -128 -85.5 q-71.5 -29.5 -150.5 -29.5 ZM512 -62 q190 4 317 130.5 q127 126.5 131 316.5 q-4 190 -131 316 q-127 126 -317 131 q-191 -5 -317.5 -131 q-126.5 -126 -131.5 -316 q5 -190 131.5 -316.5 q126.5 -126.5 317.5 -130.5 ZM757 283 q8 -8 7.5 -19 q-0.5 -11 -8.5 -19 q-8 -8 -18.5 -8 q-10.5 0 -19.5 8 l-260 261 l-154 -137 q-9 -7 -19.5 -6.5 q-10.5 0.5 -18 9 q-7.5 8.5 -7 19.5 q0.5 11 8.5 18 l193 171 l296 -297 Z"></path></symbol><symbol id="ic_walletqianb-" viewBox="0 -212 1024 1024"><path d="M675 285 q107 2 178 73.5 q71 71.5 74 178.5 q-3 107 -74 178.5 q-71 71.5 -178 73.5 q-108 -2 -179 -73.5 q-71 -71.5 -74 -178.5 q3 -107 74 -178.5 q71 -71.5 179 -73.5 ZM790 616 q3 -21 -1.5 -41 q-4.5 -20 -20.5 -36 q-9 -9 -19 -15 q-10 -6 -23 -11 l-57 -16 q-35 -9 -39 -40 q3 -18 22.5 -22 q19.5 -4 35.5 -3 q21 0 39 5 q18 5 35 12 l14 -58 q-16 -7 -34.5 -11.5 q-18.5 -4.5 -40.5 -4.5 l0 -47 l-52 0 l0 49 q-35 2 -61.5 24 q-26.5 22 -25.5 68 q9 60 79.5 84 q70.5 24 76.5 55 q-2 20 -19 27 q-17 7 -44 3 q-21 -2 -42.5 -8.5 q-21.5 -6.5 -39.5 -13.5 l-15 61 q43 15 89 22 l0 47 l52 0 l0 -47 q54 -6 72 -34 q18 -28 19 -49 ZM410 -32 q132 2 220 45.5 q88 43.5 91 108.5 q-3 66 -91 109.5 q-88 43.5 -220 45.5 q-132 -2 -219.5 -45.5 q-87.5 -43.5 -90.5 -109.5 q3 -65 90.5 -108.5 q87.5 -43.5 219.5 -45.5 ZM552 171 q5 -13 -1 -25 q-6 -12 -26 -22 q-11 -6 -23 -9.5 q-12 -3.5 -28 -6.5 l-70 -10 q-44 -6 -48 -24 q3 -11 27.5 -13.5 q24.5 -2.5 43.5 -2.5 q25 1 47.5 4 q22.5 3 43.5 7 l18 -36 q-46 -10 -93 -10 l0 -28 l-64 0 l0 30 q-43 1 -75.5 14.5 q-32.5 13.5 -32.5 41.5 q12 36 98.5 51 q86.5 15 94.5 34 q-2 12 -23 16 q-21 4 -55 2 q-26 -1 -52 -5 q-26 -4 -48 -8 l-19 37 q53 9 109 14 l0 28 l64 0 l0 -29 q66 -3 88.5 -20.5 q22.5 -17.5 23.5 -29.5 ZM508 316 q-44 31 -73 76 l-25 1 q-132 -2 -219.5 -45.5 q-87.5 -43.5 -90.5 -109.5 q0 -18 8 -34 q25 53 107 86 q82 33 195 34 q50 0 98 -8 ZM712 274 q-25 -5 -51 -5 l-14 0 q48 -28 66 -65 q8 17 8 35 q0 18 -8 35 l-1 0 ZM417 425 q-15 33 -21 69 q-127 -5 -210 -48 q-83 -43 -86 -106 q0 -18 8 -34 q25 52 107 85 q82 33 195 35 l7 -1 ZM392 537 q0 29 7 58 q-128 -4 -212 -47 q-84 -43 -87 -107 q0 -18 8 -34 q24 50 101 83 q77 33 184 37 l-1 10 ZM108 508 q25 53 106.5 86 q81.5 33 194.5 34 q13 37 35 68 q-16 1 -34 1 q-132 -2 -219.5 -45.5 q-87.5 -43.5 -90.5 -108.5 q0 -18 8 -35 ZM471 727 q35 34 80 54 q-64 17 -141 17 q-132 -1 -219.5 -44.5 q-87.5 -43.5 -90.5 -109.5 q0 -18 8 -34 q25 52 107 85.5 q82 33.5 195 34.5 q32 0 61 -3 ZM471 727 l0 0 Z"></path></symbol><symbol id="ic_tishigantanh-" viewBox="0 -212 1024 1024"><path d="M511 -63 q191 5 317 131.5 q126 126.5 131 316.5 q-5 190 -131 316 q-126 126 -317 131 q-190 -5 -316 -131 q-126 -126 -131 -316 q5 -190 131 -316.5 q126 -126.5 316 -131.5 ZM511 765 q162 -4 269.5 -111.5 q107.5 -107.5 111.5 -268.5 q-4 -162 -111.5 -269.5 q-107.5 -107.5 -269.5 -111.5 q-161 4 -268.5 111.5 q-107.5 107.5 -111.5 269.5 q4 161 111.5 268.5 q107.5 107.5 268.5 111.5 ZM511 765 l0 0 ZM597 503 q3 0 6 3 q3 3 3 8 q-3 21 -54.5 64.5 q-51.5 43.5 -113.5 48.5 q-22 -1 -34.5 -18.5 q-12.5 -17.5 -13.5 -39.5 q2 -28 14.5 -54.5 q12.5 -26.5 17.5 -37.5 l54 -130 q4 -10 1 -15 q-3 -5 -8 -5 q-22 5 -41 36.5 q-19 31.5 -30 35.5 q-4 0 -7 -3 q-3 -3 -3 -7 q1 -12 13.5 -32 q12.5 -20 21.5 -29 q23 -21 52.5 -35 q29.5 -14 63.5 -14 q27 -1 43.5 18.5 q16.5 19.5 -2.5 72.5 l-56 144 l-8 20 q-4 12 -4.5 21 q-0.5 9 8.5 11 q20 -4 43.5 -31.5 q23.5 -27.5 33.5 -31.5 ZM597 503 l0 0 ZM582 142 q23 1 38 14.5 q15 13.5 15 36.5 q-1 26 -19 42 q-18 16 -45 17 q-24 0 -38.5 -13.5 q-14.5 -13.5 -14.5 -36.5 q1 -25 19 -42 q18 -17 45 -17 l0 -1 ZM582 143 l0 0 Z"></path></symbol><symbol id="ic_tishiyu-" viewBox="0 -212 1024 1024"><path d="M511 -63 q190 5 316.5 131 q126.5 126 130.5 316 q-4 191 -130.5 317 q-126.5 126 -316.5 131 q-190 -5 -316.5 -131 q-126.5 -126 -131.5 -317 q5 -190 131.5 -316 q126.5 -126 316.5 -131 ZM799 244 l-68 -68 l-305 305 l-136 -136 l-67 68 l203 204 l34 -34 l339 -339 ZM460 583 l0 0 Z"></path></symbol><symbol id="collection" viewBox="0 -212 1024 1024"><path d="M787 851 q25 0 43 -15 q18 -14 26 -33.5 q8 -19.5 4 -40.5 l-48 -259 l190 -179 q16 -15 21 -36 q5 -21 -1.5 -41 q-6.5 -20 -22.5 -34.5 q-16 -14.5 -37 -17.5 l-265 -46 l-117 -240 q-10 -19 -27.5 -31 q-17.5 -12 -39 -12 q-21.5 0 -39.5 12 q-18 12 -28 31 l-117 240 l-264 48 q-23 3 -39.5 17 q-16.5 14 -22 34 q-5.5 20 -0.5 41 q5 21 21 37 l190 178 l-50 258 q-4 22 4 41 q8 19 25 32 q17 13 38 14.5 q21 1.5 39 -7.5 l243 -121 l240 121 q16 7 34 9 Z"></path></symbol><symbol id="tab_icon" viewBox="0 -212 1024 1024"><path d="M30 309 q8 0 15 -5 l440 -371 l2 -1 q12 -12 26.5 -12 q14.5 0 25.5 12 l1 0 q0 0 0 1 l440 371 q8 6 17.5 5 q9.5 -1 16.5 -8 q7 -7 6 -17 q-1 -10 -9 -18 l-440 -370 q-24 -24 -58.5 -24 q-34.5 0 -58.5 24 l-441 370 q-8 7 -8.5 17.5 q-0.5 10.5 6 18 q6.5 7.5 19.5 7.5 ZM849 844 q34 0 58.5 -22.5 q24.5 -22.5 24.5 -54.5 l0 -518 q0 -11 -6.5 -18 q-6.5 -7 -17.5 -7 q-11 0 -18 7 q-7 7 -7 18 l0 518 q0 11 -10.5 20 q-10.5 9 -23.5 9 l-674 0 q-13 0 -23.5 -9 q-10.5 -9 -10.5 -20 l0 -518 q0 -10 -7 -17.5 q-7 -7.5 -17.5 -7.5 q-10.5 0 -17 7.5 q-6.5 7.5 -6.5 17.5 l0 518 q0 32 24 54.5 q24 22.5 58 22.5 l674 0 ZM666 840 q10 0 17 -7 q7 -7 7 -18 l0 -296 q0 -34 -24 -58.5 q-24 -24.5 -59 -24.5 l-190 0 q-35 0 -59 24.5 q-24 24.5 -24 58.5 l0 296 q0 11 7 18 q7 7 17 7 l308 0 ZM383 519 q0 -14 9.5 -24 q9.5 -10 24.5 -10 l190 0 q15 0 24.5 10 q9.5 10 9.5 24 l0 272 l-258 0 l0 -272 Z"></path></symbol><symbol id="heart" viewBox="0 -212 1024 1024"><path d="M809 60 q-66 -60 -156 -60 q-90 0 -153 60 l-60 53 l-57 -53 q-66 -60 -157 -60 q-91 0 -154 60 q-72 65 -72 159 q0 94 72 162 l368 338 l369 -338 q72 -68 72 -162 q0 -94 -72 -159 Z"></path></symbol><symbol id="heart-empty" viewBox="0 -212 1024 1024"><path d="M809 60 q-66 -60 -156 -60 q-90 0 -155 60 l-58 53 l-59 -53 q-64 -60 -154 -60 q-90 0 -155 60 q-72 65 -72 159.5 q0 94.5 72 159.5 l368 338 l369 -338 q72 -65 72 -159.5 q0 -94.5 -72 -159.5 ZM440 619 l-313 -293 q-45 -39 -45 -105.5 q0 -66.5 39 -103.5 q41 -39 106 -39 q56 0 105 49 l108 94 l107 -94 q53 -49 106 -49 q66 0 105 39 q39 35 39 101.5 q0 66.5 -43 107.5 l-314 293 Z"></path></symbol><symbol id="tab_icon_sel1" viewBox="0 -212 1024 1024"><path d="M319 36.45 q0 -52 26.5 -95.5 q26.5 -43.5 70.5 -69 q44 -25.5 96 -25.5 q52 0 96 25.5 q44 25.5 70.5 69 q26.5 43.5 26.5 95 q0 51.5 -26.5 95 q-26.5 43.5 -70.5 69.5 q-44 26 -96 26 q-52 0 -96 -26 q-44 -26 -70.5 -69.5 q-26.5 -43.5 -26.5 -94.5 ZM772 34.45 l0 0 ZM425 371.45 q-27 -25 -71 -58 q76 -34 158 -32 q84 -2 161 33 q-44 34 -70 57 q-64 58 -89 114 q-25 -56 -89 -114 ZM929 698.45 q15 61 -43 101 q-31 21 -73 36 q-33 10 -79 17 q-235 37 -467 -4 q-39 -8 -66 -17 q-34 -13 -61 -30 q-59 -40 -46 -108 q19 -96 51 -165 q38 -83 101 -142 q7 -7 19 -17 l1 0 q24 -23 55 -40 q-26 -19 -58 -46 q-34 -36 -47 -106 q-8 -41 -8 -93 q0 -19 17.5 -33.5 q17.5 -14.5 38.5 -16.5 q-5 28 -5 51 q0 23 5 48 q-9 0 -21 -2 q1 13 5.5 40.5 q4.5 27.5 14 51 q9.5 23.5 23.5 36.5 q11 12 49 40 l12 9 q-20 11 -30 16 l12 9 q51 39 74 60 q96 86 96 164 l0 103 q-16 4 -25.5 17 q-9.5 13 -9.5 30 q0 21 15 36 q15 15 35.5 15.5 q20.5 0.5 35.5 -14.5 q15 -15 15 -35 q0 -18 -9 -31 q-9 -13 -25 -18 l0 -102 q-1 -78 95 -164 q34 -31 82 -66 l-26 -14 l20 -16 q37 -28 48 -39 q27 -27 37 -88 q6 -20 7 -41 q-11 3 -22 3 q4 -32 4 -49 q0 -23 -5 -51 q22 2 39 17 q17 15 17 33 q0 45 -8 94 q-13 71 -47 105 q-36 32 -62 51 q29 17 54 41 q55 44 93 111 q33 56 54 135 q7 19 15 60 q2 11 3 18 ZM805 485.45 l-69 0 l0 -70 l-49 0 l0 70 l-69 0 l0 48 l69 0 l0 69 l49 0 l0 -69 l69 0 l0 -48 Z"></path></symbol><symbol id="tab_icon_sel2" viewBox="0 -212 1024 1024"><path d="M130 616 q45 -61 107 -104.5 q62 -43.5 135 -65.5 q-66 -32 -109.5 -89 q-43.5 -57 -59.5 -126.5 q-16 -69.5 0.5 -140 q16.5 -70.5 61.5 -126.5 q45 -56 109.5 -87 q64.5 -31 137.5 -31 q86 0 160 43 q71 42 113 113 q43 74 43 160 q0 86 -43 160 q-42 71 -113 113 q-74 43 -160 43 l-5 -1 q-3 0 -2 0 q-83 1 -159 33.5 q-76 32.5 -134 90.5 l-82 15 ZM36 870 q8 -124 75 -228 q65 -100 170 -158 q107 -60 231 -60 q124 0 231 60 q105 58 170 158 q67 104 75 228 l-952 0 Z"></path></symbol><symbol id="tab_icon2" viewBox="0 -212 1024 1024"><path d="M514 870 q110 0 214 -17 q44 -7 76 -17 q45 -14 80 -38 q39 -27 50 -64 q8 -27 1 -59 l-6 -28 q-6 -30 -11 -47 q-26 -90 -66 -153 q-40 -63 -98 -105 l-30 41 q51 37 86.5 93.5 q35.5 56.5 57.5 137.5 q5 16 11 44 l6 28 q5 22 -3 39 q-8 17 -28 32 q-49 33 -134 46 q-221 34 -437 -4 q-70 -13 -111 -41 q-22 -15 -30.5 -33 q-8.5 -18 -3.5 -44 q20 -96 52.5 -163 q32.5 -67 83.5 -116 q22 -21 54 -38 l-25 -44 q-35 19 -62 45 q-59 54 -95.5 128.5 q-36.5 74.5 -56.5 178.5 q-8 40 5.5 71.5 q13.5 31.5 48.5 56.5 q30 19 68 33 q26 8 62 15 q120 22 241 22 ZM278 46 q-30 6 -42 20 q-12 14 -10 41 q0 19 1 27 q4 59 23 99 q21 47 65 74 q19 13 52 39 l27 23 q122 91 103 243 q0 10 -13 19 q-17 13 -19.5 33 q-2.5 20 11.5 36 l3 3 q14 13 32.5 13 q18.5 0 33.5 -14 q4 -4 5 -6 q11 -16 8 -34.5 q-3 -18.5 -18 -29.5 q-8 -4 -11.5 -11 q-3.5 -7 -2.5 -16 q1 -21 0 -41 q-4 -48 15 -90 q17 -38 54 -74 q29 -29 91 -77 l40 -32 q39 -30 53 -76 q21 -59 18 -123 q0 -15 -12.5 -29 q-12.5 -14 -27.5 -17 q-5 -1 -8.5 0 q-3.5 1 -0.5 5 q4 9 3 19 q0 6 -2 19 q-5 19 -3 27 q3 14 17 23 q1 2 -1 11 q-4 40 -16 66 q-14 33 -43 56 l-25 19 q-64 48 -92 75 q-48 45 -75 95 q-15 -30 -45 -64 q-26 -29 -62 -60 q-22 -18 -68 -53 l-8 -6 q-56 -41 -63 -101 q0 -3 -4 -11 q-4 -13 -3 -18 q1 -11 17 -14 l1 -7 q-4 -16 -3 -36 q0 -12 3 -37 q2 -5 2 -8 ZM511 288 q59 0 109 -29.5 q50 -29.5 79 -80.5 q29 -51 29 -111 q0 -60 -29 -111 q-29 -51 -79.5 -80.5 q-50.5 -29.5 -108.5 -29.5 q-58 0 -108 29.5 q-50 29.5 -79 80 q-29 50.5 -29 111 q0 60.5 29 111.5 q29 51 79 80.5 q50 29.5 108 29.5 ZM511 -104 q45 0 83.5 23 q38.5 23 61 62.5 q22.5 39.5 22.5 85.5 q0 46 -22.5 85 q-22.5 39 -61 62 q-38.5 23 -83.5 23 q-45 0 -83 -23 q-38 -23 -60.5 -62 q-22.5 -39 -22.5 -85 q0 -46 22.5 -85.5 q22.5 -39.5 60.5 -62.5 q38 -23 83 -23 ZM680 611 l43 0 l0 -174 l-43 0 l0 174 ZM615 545 l173 0 l0 -43 l-173 0 l0 43 Z"></path></symbol><symbol id="tab_icon3" viewBox="0 -212 1024 1024"><path d="M831 531 q64 62 98.5 144.5 q34.5 82.5 34.5 171.5 l0 1 q-2 9 -9.5 14.5 q-7.5 5.5 -16 5.5 q-8.5 0 -16 -5.5 q-7.5 -5.5 -9.5 -14.5 l0 -1 q0 -80 -30.5 -153 q-30.5 -73 -86.5 -129 q-6 -4 -9.5 -11 q-3.5 -7 -2 -14.5 q1.5 -7.5 7.5 -13.5 q6 -6 13.5 -7.5 q7.5 -1.5 14.5 1.5 q7 3 11 11 ZM512 -150 q82 0 152 41 q67 39 107 107 q41 70 41 152 q0 82 -41 151 q-40 68 -107 108 q-70 41 -152 41 l-5 0 q-3 -1 -2 -1 q-108 2 -200 56 q-89 54 -141 143 q-53 94 -53 201 q-2 9 -9.5 15 q-7.5 6 -16 6 q-8.5 0 -16 -6 q-7.5 -6 -9.5 -15 l0 -2 q0 -58 15 -118 q13 -52 35 -93 q19 -40 40 -56 q43 -58 101.5 -99.5 q58.5 -41.5 127.5 -62.5 q-62 -31 -103.5 -84.5 q-41.5 -53.5 -55.5 -119.5 q-14 -66 1.5 -133 q15.5 -67 58 -119.5 q42.5 -52.5 103 -82 q60.5 -29.5 129.5 -29.5 ZM516 398 q68 -2 124 -36.5 q56 -34.5 88 -92.5 q32 -58 31 -125 q-1 -67 -35 -124 q-34 -57 -91.5 -90 q-57.5 -33 -124.5 -33 q-67 0 -124 33 q-57 33 -91 90 q-34 57 -35 124 q-1 67 31 125 q32 58 88 92.5 q56 34.5 124 36.5 l11 0 q2 0 4 1 l0 -1 ZM516 399 l0 0 Z"></path></symbol><symbol id="famale" viewBox="0 -212 1024 1024"><path d="M424 156 q40 -39 92.5 -52.5 q52.5 -13.5 105.5 0 q53 13.5 92.5 53 q39.5 39.5 52.5 92.5 q13 53 0 106 q-13 53 -52.5 92 q-39.5 39 -93 52.5 q-53.5 13.5 -106 0 q-52.5 -13.5 -91.5 -53 q-39 -39.5 -53 -92.5 q-14 -53 0 -106 q14 -53 53 -92 ZM514 -153 q139 0 258 70 q116 68 182 184 q70 119 69.5 257.5 q-0.5 138.5 -70.5 258.5 q-67 115 -183 183 q-119 70 -258 70 q-139 0 -258 -70 q-116 -68 -184 -183 q-70 -119 -70 -258.5 q0 -139.5 70 -257.5 q68 -116 184 -185 q119 -69 258 -69 l2 0 ZM749 481 q50 -49 67 -115 q17 -65 -0.5 -131.5 q-17.5 -66.5 -67 -115.5 q-49.5 -49 -115.5 -66.5 q-66 -17.5 -132 0 q-66 17.5 -115 66.5 q-45 46 -63 107.5 q-18 61.5 -5.5 124 q12.5 62.5 52.5 112.5 l-37 37 l-91 -90 q-9 -7 -19 -7 q-10 0 -17.5 7 q-7.5 7 -7.5 17.5 q0 10.5 7 19.5 l90 91 l-53 53 q-8 8 -8 18.5 q0 10.5 8 18 q8 7.5 18.5 7.5 q10.5 0 18.5 -7 l51 -55 l91 91 q9 7 20 7.5 q11 0.5 17.5 -7.5 q6.5 -8 6.5 -19 q0 -11 -7 -19 l-90 -90 l36 -38 q51 41 114 53 q63 12 123.5 -5.5 q60.5 -17.5 107.5 -64.5 Z"></path></symbol><symbol id="male" viewBox="0 -212 1024 1024"><path d="M450 234 q36 0 70.5 14 q34.5 14 61.5 40.5 q27 26.5 42.5 61.5 q15.5 35 16 73 q0.5 38 -14 73.5 q-14.5 35.5 -41 63 q-26.5 27.5 -61.5 43 q-35 15.5 -72 15.5 l-6 0 q-36 0 -70.5 -14 q-34.5 -14 -61.5 -40 q-27 -26 -42.5 -61.5 q-15.5 -35.5 -15.5 -73.5 q-1 -52 24 -96.5 q25 -44.5 68.5 -71 q43.5 -26.5 95.5 -27.5 l6 0 ZM512 -154 q102 0 196 38.5 q94 38.5 166 111 q72 72.5 111 166 q39 93.5 39 196.5 q0 139 -70 258 q-68 115 -184 184 q-119 70 -258 70 q-139 0 -258 -70 q-116 -69 -184 -184 q-70 -119 -70 -258.5 q0 -139.5 70 -257.5 q68 -116 184 -185 q119 -69 258 -69 ZM812 262 q5 -3 7 -8 q2 -5 0 -10 l-2 -175 q0 -11 -7 -18.5 q-7 -7.5 -18 -7.5 l-176 5 q-11 0 -18 7.5 q-7 7.5 -7 18 q0 10.5 7.5 18.5 q7.5 8 17.5 8 l112 -4 l-130 136 q-33 -25 -72 -38.5 q-39 -13.5 -80 -13.5 l-4 0 q-63 5 -115.5 39 q-52.5 34 -82 89 q-29.5 55 -29 118.5 q0.5 63.5 31.5 117.5 q31 54 83.5 88 q52.5 34 115.5 37 l6 0 q66 -1 121.5 -35.5 q55.5 -34.5 87 -90.5 q31.5 -56 30.5 -123 q0 -42 -14.5 -81 q-14.5 -39 -41.5 -70 l131 -135 l2 109 q0 10 7.5 18 q7.5 8 18 8.5 q10.5 0.5 18.5 -7.5 Z"></path></symbol><symbol id="star" viewBox="0 -212 1024 1024"><path d="M761 834 q34 0 57 -20 q24 -17 34 -43 q10 -26 6 -55 l-41 -216 l159 -151 l1 0 q19 -19 26 -47 q7 -28 -1 -55.5 q-8 -27.5 -29 -46 q-21 -18.5 -50 -22.5 l-222 -39 l-99 -200 q-12 -26 -36 -41.5 q-24 -15.5 -53 -15.5 l-1 0 q-29 1 -53 16 q-24 15 -35 41 l-100 200 l-222 41 q-27 5 -49 23.5 q-22 18.5 -31 46.5 l0 1 q-8 27 -1 53.5 q7 26.5 26 46.5 l161 150 l-42 217 q-4 28 6 53.5 q10 25.5 32.5 42.5 q22.5 17 51 19.5 q28.5 2.5 53.5 -11.5 l204 -101 l202 101 q19 10 44 12 l2 0 ZM281 765 l-1 1 q-10 5 -19.5 4 q-9.5 -1 -17 -7 q-7.5 -6 -12 -15.5 q-4.5 -9.5 -3.5 -20.5 l48 -250 l-183 -172 q-15 -15 -10 -38 q3 -10 10.5 -15.5 q7.5 -5.5 18.5 -7.5 l256 -46 l114 -233 q4 -8 12.5 -13 q8.5 -5 18.5 -5.5 q10 -0.5 18.5 5 q8.5 5.5 12.5 13.5 l114 233 l255 44 q10 2 17 7.5 q7 5.5 10 14.5 l0 3 q3 10 0.5 19.5 q-2.5 9.5 -9.5 16.5 l-183 174 l47 250 q2 11 -2.5 20.5 q-4.5 9.5 -12.5 15.5 q-10 7 -19 7 q-12 -2 -18 -5 l-230 -116 l-232 116 Z"></path></symbol><symbol id="tab_icon_sel3" viewBox="0 -212 1024 1024"><path d="M994 286 l-87 0 l0 481 q0 22 -17 37.5 q-17 15.5 -41 15.5 l-183 0 l0 -301 q0 -23 -17.5 -40.5 q-17.5 -17.5 -41.5 -17.5 l-190 0 q-24 0 -41.5 17.5 q-17.5 17.5 -17.5 40.5 l0 301 l-183 0 q-23 0 -40.5 -15 q-17.5 -15 -17.5 -38 l0 -481 l-87 0 l439 -372 q17 -17 43 -17 q26 0 42 17 l440 372 Z"></path></symbol><symbol id="point" viewBox="0 -212 1024 1024"><path d="M767 870 q54 0 98.5 -35 q44.5 -35 58.5 -89 q0 -2 5 -18 q58 -195 85 -310 q12 -41 5 -83.5 q-7 -42.5 -33 -77.5 l-2 -2 q-25 -28 -59.5 -44.5 q-34.5 -16.5 -72.5 -16.5 l-173 0 q22 -95 16 -187 l0 -4 q0 -43 -21.5 -79 q-21.5 -36 -57.5 -57 q-36 -21 -78.5 -21 q-42.5 0 -79 21 q-36.5 21 -58 56.5 q-21.5 35.5 -21.5 78.5 q-10 75 -36 131 q-48 103 -134 103 l-207 0 l0 634 l765 0 ZM72 305 l137 0 q71 0 124 -45 q48 -39 78 -110 q26 -63 35 -140 l3 -2 l0 -4 q0 -37 26 -63.5 q26 -26.5 62.5 -26.5 q36.5 0 63.5 26 q27 26 27 63 l0 7 q6 105 -27 207 l-15 44 l265 0 q23 1 44 11 q21 10 37 26 q15 23 19 49.5 q4 26.5 -4 52.5 l0 2 q-24 107 -84 307 q-6 18 -6 21 q-8 31 -33 51 q-25 20 -57 20 l-695 0 l0 -496 ZM186 837 l70 0 l0 -553 l-70 0 l0 553 Z"></path></symbol><symbol id="ziyuanzan_icon" viewBox="0 -212 1024 1024"><path d="M991 270.02 q23 30 28.5 68 q5.5 38 -5.5 75 q-21 89 -60 225 q-31 109 -38 126 q-10 47 -47.5 76.5 q-37.5 29.5 -85.5 28.5 l-584 0 l0 -607 q63 -4 109 -49 q38 -36 64 -96 q17 -44 27 -95 q8 -34 8 -44 q0 -36 18 -67 q18 -31 49.5 -48.5 q31.5 -17.5 67.5 -16.5 q36 1 66.5 19.5 q30.5 18.5 47.5 49 q17 30.5 17 66.5 q8 122 -31 235 l235 0 q32 0 62 14 q30 14 52 40 ZM3 869.02 l126 0 l0 -607 l-126 0 l0 607 Z"></path></symbol><symbol id="magnifier" viewBox="0 -212 1024 1024"><path d="M997 810.48 q11 10 10.5 24.5 q-0.5 14.5 -11.5 25 q-11 10.5 -25.5 10 q-14.5 -0.5 -23.5 -12.5 l-282 -304 q0 0 0 0 q-53 42 -115 64 q-65 23 -134 23 q-109 0 -201 -54 q-90 -52 -143 -142 q-55 -94 -55 -202 q0 -108 55 -200 q53 -90 143 -143 q92 -54 200 -54 q108 0 201 54 q91 53 143 143 q54 92 54 201 q0 74 -26 141 q-26 67 -73 121 q1 0 1 1 l282 304 ZM416 572.48 q89 0 166 -45 q74 -43 117 -118 q45 -77 45 -166 q0 -89 -45 -166 q-43 -75 -117 -118 q-77 -45 -166.5 -45 q-89.5 0 -165.5 45 q-75 43 -118 118 q-45 76 -45 165.5 q0 89.5 45 166.5 q43 75 118 118 q77 45 166 45 Z"></path></symbol><symbol id="edit" viewBox="0 -212 1024 1024"><path d="M1009 -13.38 q8 8 12 19.5 q4 11.5 3 23.5 q-2 24 -20 42 l-430 387 q-6 6 -34 17 q-51 20 -179 61 l-68 22 l29 -66 q54 -123 78 -171 q15 -27 22 -33 l428 -387 q18 -18 43.5 -16.5 q25.5 1.5 42.5 20.5 l73 81 ZM956 25.62 l-65 -73 l-424 382 q-20 36 -55 117 q94 -31 122 -43 l422 -383 ZM783 337.62 l65 0 l0 403 q0 37 -26 63.5 q-26 26.5 -64 27.5 l-668 0 q-37 -1 -63.5 -28 q-26.5 -27 -26.5 -63 l0 -662 q0 -38 26.5 -64 q26.5 -26 63.5 -26 l512 0 l0 65 l-512 0 q-10 0 -17 7.5 q-7 7.5 -7 17.5 l0 662 q0 10 7 17.5 q7 7.5 17 7.5 l668 0 q11 0 18 -7.5 q7 -7.5 7 -17.5 l0 -403 Z"></path></symbol><symbol id="check" viewBox="0 -212 1024 1024"><path d="M512 -154 q139 0 258 69 q116 69 184 185 q70 118 70 258 l0 0 q0 139 -70 258 q-68 115 -184 184 q-119 70 -258 70 q-139 0 -258 -70 q-116 -69 -184 -184 q-70 -119 -70 -258.5 q0 -139.5 70 -257.5 q68 -116 184 -185 q119 -69 258 -69 ZM844 204 l-40 -49 l-418 338 l-164 -163 l-45 44 l204 204 l463 -374 Z"></path></symbol><symbol id="delete02" viewBox="0 -212 1024 1024"><path d="M329 597 l66 0 l0 -479 l-66 0 l0 479 ZM479 657 l67 0 l0 -598 l-67 0 l0 598 ZM629 597 l66 0 l0 -479 l-66 0 l0 479 ZM961 -35 l0 67 l-87 0 l0 765 q0 30 -21.5 51.5 q-21.5 21.5 -50.5 21.5 l-579 0 q-30 0 -51.5 -21.5 q-21.5 -21.5 -21.5 -51.5 l0 -765 l-87 0 l0 -67 l236 0 l0 -47 q0 -29 21.5 -50.5 q21.5 -21.5 52.5 -21.5 l278 0 q31 0 52.5 21.5 q21.5 21.5 21.5 50.5 l0 47 l236 0 ZM366 -35 l292 0 l0 -47 q0 -2 -2 -4 q-2 -2 -5 -2 l-278 0 q-3 0 -5 2 q-2 2 -2 4 l0 47 ZM808 32 l-592 0 l0 765 q0 2 2 4 q2 2 5 2 l579 0 q2 0 4 -2 q2 -2 2 -4 l0 -765 Z"></path></symbol><symbol id="check02" viewBox="0 -212 1024 1024"><path d="M512 -154 q139 0 258 69 q116 69 184 185 q70 118 70 257.5 q0 139.5 -70 258.5 q-68 115 -184 184 q-119 70 -258 70 q-139 0 -258 -70 q-116 -69 -184 -184 q-70 -119 -70 -258.5 q0 -139.5 70 -257.5 q68 -116 184 -185 q119 -69 258 -69 ZM512 810 q123 0 228 -61 q103 -61 163 -163 q62 -106 62 -228 l0 0 q0 -123 -62 -229 q-60 -102 -163 -163 q-105 -61 -228 -61 q-123 0 -228 61 q-103 61 -163 163 q-62 106 -62 228.5 q0 122.5 62 228.5 q60 102 163 163 q105 61 228 61 ZM787 167 l37 46 l-435 352 l-192 -192 l43 -42 l153 154 l394 -318 Z"></path></symbol><symbol id="delete" viewBox="0 -212 1024 1024"><path d="M512 -154 q139 0 258 69 q116 69 184 185 q70 118 70 258 l0 0 q0 139 -70 258 q-68 115 -184 184 q-119 70 -258 70 q-139 0 -258 -70 q-116 -69 -184 -184 q-70 -119 -70 -258.5 q0 -139.5 70 -257.5 q68 -116 184 -185 q119 -69 258 -69 ZM765 307 l-506 0 l0 101 l506 0 l0 -101 Z"></path></symbol><symbol id="close" viewBox="0 -212 1024 1024"><path d="M759 150 l-208 208 l208 207 l-39 39 l-208 -207 l-208 207 l-39 -39 l208 -207 l-208 -208 l39 -39 l208 208 l208 -208 l39 39 ZM512 -154 q139 0 258 69 q116 69 184 185 q70 118 70 258 l0 0 q0 139 -70 258 q-68 115 -184 184 q-119 70 -258 70 q-139 0 -258 -70 q-116 -69 -184 -184 q-70 -119 -70 -258.5 q0 -139.5 70 -257.5 q68 -116 184 -185 q119 -69 258 -69 ZM512 805 q122 0 225 -61 q102 -60 161 -161 q61 -104 61 -225.5 q0 -121.5 -61 -226.5 q-58 -101 -160 -159 q-104 -62 -226 -62 q-122 0 -225 62 q-102 58 -161 159 q-61 105 -61 226.5 q0 121.5 61 226.5 q59 101 161 160 q103 61 225 61 l0 0 Z"></path></symbol><symbol id="add-img" viewBox="0 -212 1024 1024"><path d="M861 283 l54 0 l0 433 q0 25 -17 42.5 q-17 17.5 -42 17.5 l-797 0 q-24 0 -41.5 -17.5 q-17.5 -17.5 -17.5 -42.5 l0 -617 q0 -25 17.5 -42.5 q17.5 -17.5 41.5 -17.5 l624 0 l0 54 l-624 0 q-5 0 -5 6 l0 617 q0 5 5 5 l120 0 l514 -457 l168 449 l0 -430 ZM1024 64 l0 48 l-122 0 l0 122 l-49 0 l0 -122 l-122 0 l0 -48 l122 0 l0 -123 l49 0 l0 123 l122 0 ZM158 229 q0 0 0 0 q0 -19 12.5 -31 q12.5 -12 30 -12 q17.5 0 30.5 12.5 q13 12.5 13 30.5 l0 0 q0 17 -13 30 q-13 13 -30.5 13 q-17.5 0 -30 -13 q-12.5 -13 -12.5 -30 l0 0 Z"></path></symbol><symbol id="ziyuandoctor_icon5" viewBox="0 -212 1024 1024"><path d="M512 369 q40 0 74 -19 q34 -19 53.5 -52 q19.5 -33 19.5 -71.5 q0 -38.5 -19.5 -71.5 q-19.5 -33 -53.5 -52.5 q-34 -19.5 -74 -19.5 q-40 0 -74.5 19.5 q-34.5 19.5 -54 53 q-19.5 33.5 -19.5 71 q0 37.5 19.5 70.5 q19.5 33 54 52.5 q34.5 19.5 74.5 19.5 ZM512 151 q34 0 57.5 22.5 q23.5 22.5 23.5 53 q0 30.5 -23.5 53 q-23.5 22.5 -57.5 22.5 q-34 0 -57.5 -22 q-23.5 -22 -23.5 -53.5 q0 -31.5 23.5 -53.5 q23.5 -22 57.5 -22 ZM514 870 q10 0 29 -7 q18 -10 82 -75 q69 -72 128 -143 q195 -235 195 -381 q0 -64 -21 -126.5 q-21 -62.5 -60 -114.5 l-20 -27 l-23 -23 l-47 48 q5 6 17 17 l7 8 l1 0 l12 18 q33 43 50.5 95 q17.5 52 16.5 105 q0 61 -50 152 q-40 74 -112 165 q-57 70 -124 141 q-53 55 -81 79 q-71 -66 -143 -147 q-98 -110 -155 -201 q-73 -116 -73 -189 q0 -95 51 -177 q49 -80 132 -127 q86 -48 186 -48 l26 0 l36 3 q16 1 36 8 l21 -63 q-41 -12 -73 -13 l-18 0 q-11 -1 -28 -1 q-119 0 -220 57 q-98 55 -157 150 q-59 98 -59 211 q0 142 194 376 q90 108 199 210 l4 4 q17 16 41 16 l0 0 Z"></path></symbol><symbol id="ok" viewBox="0 -212 1024 1024"><path d="M1207 -83 q-16 -33 -35.5 -50.5 q-19.5 -17.5 -26.5 -19.5 q-7 -2 -11 -2 l-22 14 q-23 13 -79 60 l-134 114 q-79 67 -211 191.5 q-132 124.5 -286 278.5 l-292 -256 l-110 110 q328 327 475 512 l118 -184 q358 -540 614 -768 Z"></path></symbol><symbol id="pen" viewBox="0 -212 1024 1024"><path d="M952 31 q21 -21 21 -50 q0 -29 -21 -48 l-66 -67 q-21 -20 -50 -20 q-29 0 -50 20 l-81 83 l164 165 l83 -83 ZM839 149 l-165 -166 l-450 445 l165 166 l450 -445 ZM356 625 l-163 -164 l-102 268 l265 -104 ZM93 786 q-16 0 -29 12 q-13 12 -13 29.5 q0 17.5 12.5 30 q12.5 12.5 29.5 12.5 l741 0 q17 0 29.5 -12.5 q12.5 -12.5 12.5 -30 q0 -17.5 -12.5 -29.5 q-12.5 -12 -29.5 -12 l-741 0 Z"></path></symbol><symbol id="consulting" viewBox="0 -212 1024 1024"><path d="M894 549.94 q37 0 67.5 -18 q30.5 -18 48 -48.5 q17.5 -30.5 17.5 -68.5 q0 -38 -20 -70 q-20 -32 -55 -49 q-22 -101 -85 -180.5 q-63 -79.5 -153 -123.5 q-93 -45 -198.5 -45 q-105.5 0 -198.5 45 q-90 44 -153 123 q-63 79 -85 180 q-35 18 -55.5 50.5 q-20.5 32.5 -20.5 70 q0 37.5 18 68.5 q18 31 48 49.5 q30 18.5 67 18.5 l0 -250 q21 -87 75.5 -154.5 q54.5 -67.5 134 -105 q79.5 -37.5 169.5 -37.5 q90 0 169 37 q78 37 133 103 q55 66 77 151 l0 254 ZM516 94.94 q-94 0 -175 42 q-78 40 -124 109 q-47 72 -47 155 q0 71 37 136 q35 61 98 104.5 q63 43.5 140 58.5 q-21 32 -55 56 q26 5 47 5 q38 1 73 -14.5 q35 -15.5 61 -44.5 q82 -11 148 -54 q66 -43 103 -107 q39 -65 39 -140 q0 -83 -47 -155 q-46 -69 -124 -109 q-81 -42 -174 -42 ZM712 308.94 q0 0 0 0 q0 16 -12 28 q-12 12 -28.5 12 q-16.5 0 -28 -12 q-11.5 -12 -11.5 -28.5 q0 -16.5 11.5 -28 q11.5 -11.5 28 -11.5 q16.5 0 28.5 11.5 q12 11.5 12 28.5 ZM514 621.94 q-52 0 -96.5 -26 q-44.5 -26 -70.5 -70 q-26 -44 -26 -97 l0 -6 l387 0 l0 6 q0 53 -26.5 97 q-26.5 44 -71 70 q-44.5 26 -96.5 26 ZM356 348.94 q-16 0 -28 -12 q-12 -12 -12 -28.5 q0 -16.5 12 -28 q12 -11.5 28 -11.5 q0 0 0 0 q17 0 28.5 11.5 q11.5 11.5 11.5 28 q0 16.5 -11 28.5 q-11 12 -29 12 Z"></path></symbol><symbol id="uniE202" viewBox="0 -212 1024 1024"><path d="M335.5 37 q-81.5 37 -128.5 100.5 q-47 63.5 -47 138.5 q0 79 53 146 q1 1 4 5 q1 1 3 4 q13 19 13 41 q0 2 -0.5 4.5 q-0.5 2.5 -3 12 q-2.5 9.5 -8 27.5 q-5.5 18 -16.5 51 l79 -35 q2 -1 7.5 -3 q5.5 -2 10.5 -3 l4 -2 l1 0 q16 -6 33 -6 q14 1 29 5 l2 0 l1 1 q2 0 3 0 q55 19 139 19 q150 0 251 -79 q99 -76 99 -187 q0 -75 -47 -139 q-47 -64 -128.5 -101 q-81.5 -37 -176.5 -37 q-95 0 -176.5 37 ZM704.5 9.5 q88.5 41.5 140 112.5 q51.5 71 51.5 154.5 q0 83.5 -51 152.5 q-51 69 -139 107.5 q-88 38.5 -192 38.5 q-90 0 -151 -20 q0 -1 -1 -1 l-2 0 l0 -1 q-10 -3 -21 -3 q-11 1 -22 4 l1 0 l-1 0 l-9 4 q-10 3 -11 4 l-101 44 l-3 1 q-4 1 -7 1 l-6 0 q-8 -2 -12.5 -8 q-4.5 -6 -2.5 -12 q36 -114 36 -116 q0 -12 -7 -23 l0 0 q0 1 2 4 q-1 -1 -2 -3 q-1 -2 -2.5 -4 q-1.5 -2 -2.5 -3 q-61 -76 -61 -166 q0 -84 51.5 -155 q51.5 -71 140 -112.5 q88.5 -41.5 192.5 -41.5 q104 0 192.5 41.5 Z"></path></symbol><symbol id="uniE232" viewBox="0 -212 1024 1024"><path d="M704.5 9.5 q88.5 41.5 140 112.5 q51.5 71 51.5 154.5 q0 83.5 -51 152.5 q-51 69 -139 107.5 q-88 38.5 -192 38.5 q-90 0 -151 -20 q0 -1 -1 -1 l-2 0 l0 -1 q-10 -3 -21 -3 q-11 1 -22 4 l1 0 l-1 0 l-9 4 q-10 3 -11 4 l-101 44 l-3 1 q-4 1 -7 1 l-6 0 q-8 -2 -12.5 -8 q-4.5 -6 -2.5 -12 q36 -114 36 -116 q0 -12 -7 -23 l0 0 q0 1 2 4 q-1 -1 -2 -3 q-1 -2 -2.5 -4 q-1.5 -2 -2.5 -3 q-61 -76 -61 -166 q0 -84 51.5 -155 q51.5 -71 140 -112.5 q88.5 -41.5 192.5 -41.5 q104 0 192.5 41.5 Z"></path></symbol></defs></svg>