<?xml version="1.0" encoding="utf-8"?><!DOCTYPE svg PUBLIC "-//W3C//DTD SVG 1.1//EN" "http://www.w3.org/Graphics/SVG/1.1/DTD/svg11.dtd"><svg id="" width="256" height="256" style="width:256px;height:256px;"  version="1.1" xmlns="http://www.w3.org/2000/svg" viewBox="0 0 32 32">
<g>
	<g>
		<path fill="#FFCA66" d="M1.003,16c0,6.345,1.157,11.488,15.013,11.497V4.503C2.003,4.511,1.003,9.654,1.003,16z"/>
		<path fill="#EEB758" d="M16.047,4.503c-0.01,0-0.021,0-0.031,0v22.994c0.01,0,0.021,0,0.031,0
			c13.885,0,15.044-5.147,15.044-11.497C31.091,9.65,30.088,4.503,16.047,4.503z"/>
	</g>
	<g>
		<path fill="#A1AE39" d="M11.043,12.495c0,0-1.17-1.139-5.015,0c-4.387,1.299-4.556,0-4.556,0s-0.501,1.118-0.501,4.006
			c0,2.889,0.501,3.913,0.501,3.913s0.75-0.943,4.556,0c2.402,0.596,2.583,0.782,5.015,0c3.217-1.034,4.973,0,4.973,0v-7.919
			C13.007,13.675,11.043,12.495,11.043,12.495z"/>
		<path fill="#8F9E3A" d="M30.559,12.495c0,0-2.03-0.944-5.475,0c-4.305,1.181-4.514,0-4.514,0s-1.758-1.097-4.554,0v7.919
			c0,0,1.476,1,5.056,0c3.029-0.847,3.343-0.22,3.97,0c2.132,1.159,5.517,0,5.517,0s0.501-1.285,0.501-3.977
			C31.06,13.745,30.559,12.495,30.559,12.495z"/>
	</g>
	<g>
		<path fill="#EB6C52" d="M2,14.009c-1.104,0-2,0.822-2,1.835v1.261c0,1.014,0.896,1.835,2,1.835h14.016v-4.931H2z"/>
		<path fill="#DD5431" d="M30,14.009H16.016v4.931H30c1.104,0,2-0.821,2-1.835v-1.261C32,14.831,31.104,14.009,30,14.009z"/>
	</g>
</g>
</svg>