<?xml version="1.0" encoding="utf-8"?><!DOCTYPE svg PUBLIC "-//W3C//DTD SVG 1.1//EN" "http://www.w3.org/Graphics/SVG/1.1/DTD/svg11.dtd"><svg id="heart-empty" width="128" height="128" style="width:128px;height:128px;" version="1.1" xmlns="http://www.w3.org/2000/svg" viewBox="0 0 1024 1024" enable-background="new 0 0 1024 1024" xml:space="preserve"><path fill="#666" d="M940.31 763.64 q-76.71 69.74 -181.32 69.74 q-104.61 0 -180.16 -69.74 l-67.41 -61.6 l-68.58 61.6 q-74.39 69.74 -178.99 69.74 q-104.61 0 -180.16 -69.74 q-83.69 -75.55 -83.69 -185.39 q0 -109.84 83.69 -185.39 l427.73 -392.86 l428.89 392.86 q83.69 75.55 83.69 185.39 q0 109.84 -83.69 185.39 ZM511.42 113.91 l-363.81 340.56 q-52.3 45.33 -52.3 122.62 q0 77.29 45.33 120.3 q47.66 45.33 123.21 45.33 q65.09 0 122.04 -56.95 l125.53 -109.26 l124.37 109.26 q61.6 56.95 123.2 56.95 q76.71 0 122.05 -45.33 q45.33 -40.68 45.33 -117.98 q0 -77.29 -49.98 -124.94 l-364.97 -340.56 Z"/></svg>