<?xml version="1.0" encoding="utf-8"?><!DOCTYPE svg PUBLIC "-//W3C//DTD SVG 1.1//EN" "http://www.w3.org/Graphics/SVG/1.1/DTD/svg11.dtd"><svg id="ic_order-" width="128" height="128" style="width:128px;height:128px;" version="1.1" xmlns="http://www.w3.org/2000/svg" viewBox="0 0 1024 1024" enable-background="new 0 0 1024 1024" xml:space="preserve"><path fill="#597AEE" d="M619.94 0 l-225.01 0 q-20.66 1.15 -35.01 16.07 q-14.35 14.93 -14.35 38.45 q0 23.53 14.35 39.03 q14.35 15.5 35.01 16.65 l226.15 0 q19.52 -1.15 33.29 -16.65 q13.77 -15.5 13.77 -39.03 q0 -23.53 -13.77 -38.45 q-13.77 -14.92 -34.43 -16.07 ZM863.31 36.74 l-111.36 0 q1.15 9.18 1.15 18.36 q-1.15 35.59 -21.81 62.57 q-20.66 26.98 -51.66 28.12 l-343.24 0 q-32.15 -1.14 -53.38 -28.12 q-21.24 -26.98 -21.24 -62.57 q0 -9.18 1.14 -18.36 l-112.5 0 q-67.73 1.14 -91.26 35.01 q-23.54 33.86 -22.39 91.26 l0 735.86 q-1.15 60.84 26.98 92.99 q28.13 32.14 93.56 32.14 l699.12 0 q66.58 0 98.73 -29.27 q32.14 -29.27 32.14 -95.86 l0 -735.86 q0 -57.4 -30.42 -91.26 q-30.42 -33.87 -93.56 -35.01 ZM748.51 764.56 l-486.74 0 q-13.78 -1.15 -24.11 -13.78 q-10.33 -12.63 -10.33 -26.4 q0 -13.77 9.18 -23.53 q9.18 -9.75 22.96 -9.75 l484.45 0 q13.77 0 23.53 9.18 q9.76 9.18 10.34 23.53 q0.57 14.35 -7.46 26.98 q-8.04 12.63 -21.82 13.78 ZM750.81 569.4 l-486.75 0 q-13.77 -1.15 -21.24 -12.05 q-7.46 -10.9 -7.46 -25.25 q0 -14.35 9.19 -25.25 q9.18 -10.91 22.96 -10.91 l485.59 0 q13.78 0 22.97 10.33 q9.18 10.33 9.75 25.26 q0.57 14.92 -10.33 25.83 q-10.9 10.9 -24.68 12.05 ZM750.81 368.5 l-486.75 0 q-13.77 0 -21.24 -11.48 q-7.46 -11.48 -7.46 -25.83 q0 -14.35 9.19 -24.68 q9.18 -10.33 22.96 -11.48 l485.59 0 q13.78 1.15 22.97 11.48 q9.18 10.33 9.75 24.68 q0.57 14.35 -10.33 25.83 q-10.9 11.48 -24.68 11.48 Z"/></svg>