<?xml version="1.0" encoding="utf-8"?><!DOCTYPE svg PUBLIC "-//W3C//DTD SVG 1.1//EN" "http://www.w3.org/Graphics/SVG/1.1/DTD/svg11.dtd"><svg id="ic_chooseriqi-" width="128" height="128" style="width:128px;height:128px;" version="1.1" xmlns="http://www.w3.org/2000/svg" viewBox="0 0 1024 1024" enable-background="new 0 0 1024 1024" xml:space="preserve"><path fill="#666" d="M291.86 810.05 q-11.13 0 -18.55 8.04 q-7.42 8.04 -8.65 19.17 l0 127.38 q0 11.13 8.04 19.17 q8.03 8.04 19.78 8.04 q11.75 0 19.17 -8.04 q7.42 -8.04 8.66 -19.17 l0 -127.38 q-1.24 -11.13 -8.66 -19.17 q-7.42 -8.04 -19.79 -8.04 ZM732.14 810.05 q-12.37 0 -19.79 8.04 q-7.42 8.04 -8.66 19.17 l0 127.38 q1.24 11.13 8.66 19.17 q7.42 8.04 19.17 8.04 q11.75 0 19.79 -8.04 q8.03 -8.04 8.03 -19.17 l0 -127.38 q-1.23 -11.13 -8.65 -19.17 q-7.42 -8.04 -18.55 -8.04 ZM969.58 944.85 q23.5 0 38.96 -15.46 q15.46 -15.46 15.46 -38.96 l0 -836.01 q0 -23.5 -15.46 -38.96 q-15.46 -15.46 -38.96 -15.46 l-915.16 0 q-23.5 0 -38.96 15.46 q-15.46 15.46 -15.46 38.96 l0 836.01 q0 23.5 15.46 38.96 q15.46 15.46 38.96 15.46 l126.14 0 q11.13 0 19.17 -7.42 q8.04 -7.42 8.04 -19.17 q0 -11.75 -8.04 -19.79 q-8.04 -8.04 -19.17 -8.04 l-89.04 0 q-16.08 0 -26.59 -10.51 q-10.51 -10.51 -10.51 -25.35 l0 -98.94 l915.16 0 l0 98.94 q0 14.84 -10.51 25.35 q-10.51 10.51 -26.59 10.51 l-91.51 0 q-11.13 0 -18.55 8.04 q-7.42 8.04 -7.42 19.79 q0 11.75 7.42 19.17 q7.42 7.42 18.55 7.42 l128.61 0 ZM969.58 699.98 l-915.16 0 l0 -609.7 q0 -14.84 10.51 -25.35 q10.51 -10.51 26.59 -10.51 l840.96 0 q16.08 0 26.59 10.51 q10.51 10.51 10.51 25.35 l0 609.7 ZM399.46 890.43 q-11.13 0 -19.17 8.04 q-8.04 8.04 -8.04 19.79 q0 11.75 8.04 19.17 q8.04 7.42 19.17 7.42 l222.61 0 q11.13 0 19.17 -7.42 q8.04 -7.42 8.04 -19.17 q0 -11.75 -8.04 -19.79 q-8.04 -8.04 -19.17 -8.04 l-222.61 0 ZM168.19 549.1 q-8.65 0 -14.22 7.42 q-5.56 7.42 -5.56 19.17 q0 11.75 5.56 19.79 q5.56 8.04 14.22 8.04 l162.01 0 q8.66 0 14.23 -8.04 q5.56 -8.04 5.56 -19.79 q0 -11.75 -5.56 -19.17 q-5.56 -7.42 -14.23 -7.42 l-162.01 0 ZM429.14 549.1 q-7.42 0 -13.6 7.42 q-6.19 7.42 -6.19 19.17 q0 11.75 5.56 19.79 q5.56 8.04 14.22 8.04 l162.01 0 q8.66 0 14.23 -8.04 q5.57 -8.04 5.57 -19.79 q0 -11.75 -5.57 -19.17 q-5.57 -7.42 -14.23 -7.42 l-162.01 0 ZM698.74 549.1 q-8.65 0 -14.21 7.42 q-5.57 7.42 -5.57 19.17 q0 11.75 5.57 19.79 q5.56 8.04 14.21 8.04 l162.01 0 q8.66 0 14.22 -8.04 q5.57 -8.04 5.57 -19.79 q0 -11.75 -5.57 -19.17 q-5.56 -7.42 -14.22 -7.42 l-162.01 0 ZM168.19 394.51 q-8.65 0 -14.22 7.42 q-5.56 7.42 -5.56 19.17 q0 11.75 5.56 19.17 q5.56 7.42 14.22 8.66 l162.01 0 q8.66 -1.24 14.23 -8.66 q5.56 -7.42 5.56 -19.17 q0 -11.75 -5.56 -19.17 q-5.56 -7.42 -14.23 -7.42 l-162.01 0 ZM429.14 394.51 q-7.42 0 -13.6 7.42 q-6.19 7.42 -6.19 19.17 q0 11.75 5.56 19.17 q5.56 7.42 14.22 8.66 l162.01 0 q8.66 -1.24 14.23 -8.66 q5.57 -7.42 5.57 -19.17 q0 -11.75 -5.57 -19.17 q-5.57 -7.42 -14.23 -7.42 l-162.01 0 ZM698.74 394.51 q-8.65 0 -14.21 7.42 q-5.57 7.42 -5.57 19.17 q0 11.75 5.57 19.17 q5.56 7.42 14.21 8.66 l162.01 0 q8.66 -1.24 14.22 -8.66 q5.57 -7.42 5.57 -19.17 q0 -11.75 -5.57 -19.17 q-5.56 -7.42 -14.22 -7.42 l-162.01 0 ZM168.19 228.79 q-8.65 0 -14.22 8.04 q-5.56 8.04 -5.56 19.17 q0 11.13 5.56 19.17 q5.56 8.04 14.22 8.04 l162.01 0 q8.66 0 14.23 -8.04 q5.56 -8.04 5.56 -19.17 q0 -11.13 -5.56 -19.17 q-5.56 -8.04 -14.23 -8.04 l-162.01 0 ZM429.14 228.79 q-7.42 0 -13.6 8.04 q-6.19 8.04 -6.19 19.17 q0 11.13 5.56 19.17 q5.56 8.04 14.22 8.04 l162.01 0 q8.66 0 14.23 -8.04 q5.57 -8.04 5.57 -19.17 q0 -11.13 -5.57 -19.17 q-5.57 -8.04 -14.23 -8.04 l-162.01 0 ZM698.74 228.79 q-8.65 0 -14.21 8.04 q-5.57 8.04 -5.57 19.17 q0 11.13 5.57 19.17 q5.56 8.04 14.21 8.04 l162.01 0 q8.66 0 14.22 -8.04 q5.57 -8.04 5.57 -19.17 q0 -11.13 -5.57 -19.17 q-5.56 -8.04 -14.22 -8.04 l-162.01 0 Z"/></svg>