<?xml version="1.0" encoding="utf-8"?><!DOCTYPE svg PUBLIC "-//W3C//DTD SVG 1.1//EN" "http://www.w3.org/Graphics/SVG/1.1/DTD/svg11.dtd"><svg id="magnifier" width="128" height="128" style="width:128px;height:128px;" version="1.1" xmlns="http://www.w3.org/2000/svg" viewBox="0 0 1024 1024" enable-background="new 0 0 1024 1024" xml:space="preserve"><path fill="#666" d="M996.49 59.49 q11 -9.99 10.5 -24.48 q-0.5 -14.5 -11.5 -24.99 q-11 -10.5 -25.49 -10 q-14.5 0.5 -23.49 12.5 l-281.86 303.84 q-52.97 -41.98 -114.94 -63.97 q-64.97 -22.98 -133.93 -22.98 q-108.95 0 -200.9 53.97 q-89.95 51.97 -142.93 141.93 q-54.97 93.95 -54.97 201.89 q0 107.95 54.97 199.9 q52.98 89.95 142.93 142.93 q91.95 53.97 199.89 53.97 q107.95 0 200.91 -53.97 q90.95 -52.98 142.92 -142.93 q53.98 -91.95 53.98 -200.9 q0 -73.96 -25.99 -140.93 q-25.99 -66.96 -72.96 -120.94 q1 0 1 -1 l281.85 -303.85 ZM415.79 297.37 q88.95 0 165.91 44.98 q73.97 42.98 116.94 117.94 q44.98 76.96 44.98 165.91 q0 88.96 -44.98 165.92 q-42.97 74.96 -116.94 117.94 q-76.96 44.98 -166.42 44.98 q-89.45 0 -165.41 -44.98 q-74.96 -42.98 -117.94 -117.94 q-44.97 -75.96 -44.97 -165.42 q0 -89.45 44.97 -166.41 q42.98 -74.96 117.94 -117.94 q76.96 -44.98 165.92 -44.98 Z"/></svg>