<?xml version="1.0" encoding="utf-8"?><!DOCTYPE svg PUBLIC "-//W3C//DTD SVG 1.1//EN" "http://www.w3.org/Graphics/SVG/1.1/DTD/svg11.dtd"><svg id="tab_icon3" width="128" height="128" style="width:128px;height:128px;" version="1.1" xmlns="http://www.w3.org/2000/svg" viewBox="0 0 1024 1024" enable-background="new 0 0 1024 1024" xml:space="preserve"><path fill="#666" d="M832.25 340.33 q64.25 -62.24 98.88 -145.06 q34.63 -82.82 34.63 -172.17 q-2.01 -10.04 -9.53 -15.56 q-7.52 -5.52 -16.06 -5.52 q-8.53 0 -16.06 5.52 q-7.53 5.52 -9.54 14.56 q0 81.31 -30.62 154.6 q-30.62 73.29 -86.84 129.51 q-6.02 4.01 -9.53 11.04 q-3.52 7.03 -2.01 14.56 q1.5 7.53 7.53 13.55 q6.02 6.02 13.55 7.52 q7.53 1.5 14.56 -1.5 q7.03 -3.01 11.04 -11.04 ZM512 1024 q82.32 0 152.6 -41.16 q67.26 -39.15 107.42 -107.42 q41.16 -70.27 41.16 -152.59 q0 -82.33 -41.16 -151.6 q-40.16 -68.27 -107.42 -108.42 q-70.28 -41.16 -152.6 -41.16 l-5.02 0 q-3.01 1 -2.01 1 q-108.42 -2.01 -200.78 -56.22 q-89.35 -54.21 -141.55 -143.56 q-53.21 -94.37 -53.21 -201.79 q-2.01 -9.03 -9.54 -15.05 q-7.53 -6.03 -16.06 -6.03 q-8.53 0 -16.06 6.03 q-7.52 6.03 -9.54 15.05 l0 2.01 q0 58.23 15.06 118.46 q13.05 52.21 35.13 93.37 q19.08 40.15 40.16 56.22 q43.17 58.22 101.9 99.88 q58.73 41.67 128 62.75 q-62.24 31.12 -103.91 84.83 q-41.66 53.71 -55.72 119.97 q-14.06 66.26 1.5 133.53 q15.56 67.26 58.22 119.97 q42.67 52.7 103.41 82.32 q60.74 29.62 130.01 29.62 ZM516.02 472.85 q68.26 3.01 124.48 37.64 q56.22 34.63 88.35 92.86 q32.13 58.23 31.12 125.49 q-1 67.26 -35.13 124.49 q-34.13 57.22 -91.86 90.36 q-57.73 33.13 -124.99 33.13 q-67.26 0 -124.49 -33.13 q-57.23 -33.13 -91.36 -90.36 q-34.13 -57.23 -35.13 -124.49 q-1 -67.26 31.12 -125.49 q32.13 -58.23 88.35 -92.86 q56.22 -34.63 124.49 -36.64 l11.04 0 q2.01 0 4.02 -1 Z"/></svg>