<?xml version="1.0" encoding="utf-8"?><!DOCTYPE svg PUBLIC "-//W3C//DTD SVG 1.1//EN" "http://www.w3.org/Graphics/SVG/1.1/DTD/svg11.dtd"><svg id="tab_icon_sel2" width="128" height="128" style="width:128px;height:128px;" version="1.1" xmlns="http://www.w3.org/2000/svg" viewBox="0 0 1024 1024" enable-background="new 0 0 1024 1024" xml:space="preserve"><path fill="#597AEE" d="M130 254 q45 61 107 104.5 q62 43.5 135 65.5 q-66 32 -109.5 89 q-43.5 57 -59.5 126.5 q-16 69.5 0.5 140 q16.5 70.5 61.5 126.5 q45 56 109.5 87 q64.5 31 137.5 31 q86 0 160 -43 q71 -42 113 -113 q43 -74 43 -160 q0 -86 -43 -160 q-42 -71 -113 -113 q-74 -43 -160 -43 l-5 1 l-2 0 q-83 -1 -159 -33.5 q-76 -32.5 -134 -90.5 l-82 -15 ZM36 0 q8 124 75 228 q65 100 170 158 q107 60 231 60 q124 0 231 -60 q105 -58 170 -158 q67 -104 75 -228 l-952 0 Z"/></svg>